<?xml version="1.0" encoding="utf-8"?>
<!-- Generator: Adobe Illustrator 27.6.1, SVG Export Plug-In . SVG Version: 6.00 Build 0)  -->
<svg version="1.1" id="Layer_1" xmlns="http://www.w3.org/2000/svg" xmlns:xlink="http://www.w3.org/1999/xlink" x="0px" y="0px"
	 viewBox="0 0 2397.8 1657.7" style="enable-background:new 0 0 2397.8 1657.7;" xml:space="preserve">
<style type="text/css">
	.st0{fill:none;}
	.st1{fill:#FFFFFF;}
	.st2{display:none;}
	.st3{display:inline;fill:#1E5B3A;}
	.st4{fill:url(#SVGID_00000002362892432945864060000006860760956746029960_);}
	.st5{fill:#FF2E23;}
	.st6{display:inline;}
	.st7{display:inline;opacity:0.31;fill:#C9C9C9;enable-background:new    ;}
	.st8{fill:#FFFFFF;stroke:#000000;stroke-width:1.6614;stroke-miterlimit:10;}
	.st9{display:none;fill:#FF2E23;}
	.st10{fill:none;stroke:#FFFFFF;stroke-width:1.6614;stroke-miterlimit:10;}
	.st11{opacity:0.31;fill:#C9C9C9;enable-background:new    ;}
	.st12{fill:#FFFFFF;stroke:#000000;stroke-width:4.1372;stroke-miterlimit:10;}
	.st13{fill:none;stroke:#FF2E23;stroke-width:16.7001;stroke-miterlimit:10;}
	.st14{fill:none;stroke:#FFFFFF;stroke-width:8.2744;stroke-miterlimit:10;}
	.st15{fill:#110809;}
	.st16{fill:none;stroke:#110809;stroke-width:8.2744;stroke-miterlimit:10;}
	.st17{display:inline;fill:#FF2E23;}
	.st18{display:inline;fill:none;stroke:#000000;stroke-width:3.3227;stroke-miterlimit:10;}
	.st19{display:inline;fill:#44423F;stroke:#000000;stroke-width:1.4985;stroke-miterlimit:10;}
	.st20{fill:#EDEDED;}
	.st21{fill:#E3EEFF;}
	.st22{fill:#BCBCBC;}
	.st23{display:inline;fill:#FFFFFF;}
	.st24{display:inline;opacity:0.5;}
	.st25{fill:#CCCCCC;}
	.st26{fill:#AFAFAF;}
	.st27{fill:#8C8C8C;}
	.st28{fill:#3F9EE6;}
	.st29{fill:#939393;}
	.st30{fill:#282828;}
	.st31{fill:#808080;}
	.st32{fill:#565656;}
	.st33{display:none;fill:#D3D3D3;}
	.st34{display:none;fill:#EDEDED;}
	.st35{display:inline;fill:#FFFFFF;stroke:#000000;stroke-width:2.3823;stroke-miterlimit:10;}
	.st36{fill:#FFFFFF;stroke:#000000;stroke-width:2.3823;stroke-miterlimit:10;}
	.st37{display:inline;fill:#FFFFFF;stroke:#000000;stroke-width:2.6123;stroke-miterlimit:10;}
	.st38{fill:#FFFFFF;stroke:#000000;stroke-width:4.5;stroke-miterlimit:10;}
	.st39{display:none;fill:#FFFFFF;stroke:#000000;stroke-width:3.8595;stroke-miterlimit:10;}
	.st40{fill:#FFFFFF;stroke:#000000;stroke-width:3.3028;stroke-miterlimit:10;}
	.st41{fill:#112129;}
</style>
<pattern  x="689.3" y="1107.8" width="54" height="54" patternUnits="userSpaceOnUse" id="SVGID_1_" viewBox="0 -54 54 54" style="overflow:visible;">
	<g>
		<rect y="-54" class="st0" width="54" height="54"/>
		<g>
			<rect y="-54" class="st0" width="54" height="54"/>
			<rect y="-54" class="st1" width="54" height="54"/>
			<path d="M4.3-4.6c0,0.5,0.5,0.9,1,0.9c0.5,0,0.9-0.5,0.9-1c0-0.5-0.5-0.9-1-0.9C4.7-5.6,4.3-5.1,4.3-4.6z"/>
			<path d="M23.7-4.6c0,0.5,0.5,0.9,1,0.9c0.5,0,0.9-0.5,0.9-1s-0.5-0.9-1-0.9S23.6-5.1,23.7-4.6z"/>
			<path d="M41.2-4.6c0,0.5,0.5,0.9,1,0.9c0.5,0,0.9-0.5,0.9-1c0-0.5-0.5-0.9-1-0.9C41.5-5.6,41.1-5.1,41.2-4.6z"/>
			<path d="M4.3-22c0,0.5,0.5,0.9,1,0.9c0.5,0,0.9-0.5,0.9-1c0-0.5-0.5-0.9-1-0.9S4.3-22.5,4.3-22z"/>
			<path d="M23.7-22c0,0.5,0.5,0.9,1,0.9c0.5,0,0.9-0.5,0.9-1s-0.5-0.9-1-0.9C24-23,23.6-22.5,23.7-22z"/>
			<path d="M41.2-22c0,0.5,0.5,0.9,1,0.9c0.5,0,0.9-0.5,0.9-1c0-0.5-0.5-0.9-1-0.9C41.5-23,41.1-22.5,41.2-22z"/>
			<path d="M4.3-39.3c0,0.5,0.5,0.9,1,0.9c0.5,0,0.9-0.5,0.9-1c0-0.5-0.5-0.9-1-0.9C4.7-40.3,4.3-39.9,4.3-39.3z"/>
			<path d="M23.7-39.3c0,0.5,0.5,0.9,1,0.9c0.5,0,0.9-0.5,0.9-1c0-0.5-0.5-0.9-1-0.9C24-40.3,23.6-39.9,23.7-39.3z"/>
			<path d="M41.2-39.3c0,0.5,0.5,0.9,1,0.9c0.5,0,0.9-0.5,0.9-1c0-0.5-0.5-0.9-1-0.9C41.5-40.3,41.1-39.9,41.2-39.3z"/>
		</g>
	</g>
</pattern>
<g id="BACKGROUND" class="st2">
	<rect id="XMLID_28_" x="711.3" y="460.6" class="st3" width="886" height="658"/>
</g>
<g id="Layer_5_00000047762732761749778990000015342949068641590972_">
	
		<pattern  id="SVGID_00000180353570313707734120000009046277387142627502_" xlink:href="#SVGID_1_" patternTransform="matrix(4.1897 0 0 -4.3533 41930.2383 -56445.1211)">
	</pattern>
	<path style="fill:url(#SVGID_00000180353570313707734120000009046277387142627502_);" d="M887,1355.5
		c-81.5-19.2-123.8,72-234.3,58.8c-70-8.4-163.7-80.9-220.8-181.9c-54.6-96.6-91.6-181.9-43.1-291c44.3-99.8-46.1-162.4-56.5-268.6
		c-13.4-136.1,115.2-217.5,212.8-285.4c100.3-69.8,164.3-190.3,465.9-209.9c194.3-12.6,291.3,169.5,417.5,198.7
		c108.6,40.1,209.5,16.7,404,153.9C1975,630.8,1986,732.3,2004.6,877c14,109.2-40.4,338.6-172.4,358.2c-33,4.9-79.8,15.3-105.9,36.9
		c-22,18.2-50.3,25.7-78,31.3c-119.5,24.5-125.2,201.6-429.9,189.4C1005.5,1484.2,1005.5,1383.5,887,1355.5z"/>
	<g>
		<path class="st5" d="M528.7,491.3h37L684,800.7h-62.8l-74-211.3l-74,211.3h-62.8L528.7,491.3z M467.2,694.9H630v56.2H467.2V694.9z
			"/>
		<path class="st5" d="M750.4,790.4c-16.7-9-29.5-22.1-38.3-39.4c-8.8-17.2-13.2-38-13.2-62.4v-84.9c0-24.4,4.4-45.2,13.2-62.4
			c8.8-17.2,21.6-30.4,38.3-39.5c16.7-9.1,36.9-13.6,60.4-13.6c19.4,0,36.8,4.2,52.1,12.6c15.3,8.4,28,20.5,38,36.5
			c10,16,16.9,35.2,20.8,57.8h-60.4c-2.3-10.2-5.8-18.9-10.5-26.2c-4.8-7.2-10.5-12.8-17.2-16.6c-6.7-3.8-14.3-5.7-22.7-5.7
			c-10.9,0-20.2,2.2-27.9,6.7c-7.7,4.5-13.5,11-17.5,19.6c-4,8.6-6.1,18.9-6.1,31v84.9c0,12,2,22.3,6.1,30.8c4,8.5,9.9,15,17.5,19.5
			c7.7,4.5,17,6.7,27.9,6.7c8.5,0,16.2-1.9,23-5.6c6.8-3.8,12.6-9.2,17.2-16.5s8.1-16,10.2-26.4h60.4c-4,22.6-11,41.8-21,57.8
			c-10,16-22.6,28.1-37.9,36.5c-15.3,8.4-32.6,12.6-52,12.6C787.3,803.9,767.1,799.4,750.4,790.4z"/>
		<path class="st5" d="M1011.4,790.4c-16.7-9-29.5-22.1-38.3-39.4c-8.8-17.2-13.2-38-13.2-62.4v-84.9c0-24.4,4.4-45.2,13.2-62.4
			c8.8-17.2,21.6-30.4,38.3-39.5c16.7-9.1,36.9-13.6,60.4-13.6c19.4,0,36.8,4.2,52.1,12.6c15.3,8.4,28,20.5,38,36.5
			c10,16,16.9,35.2,20.8,57.8h-60.4c-2.3-10.2-5.8-18.9-10.5-26.2c-4.8-7.2-10.5-12.8-17.2-16.6c-6.7-3.8-14.3-5.7-22.7-5.7
			c-10.9,0-20.2,2.2-27.9,6.7c-7.7,4.5-13.5,11-17.5,19.6c-4,8.6-6.1,18.9-6.1,31v84.9c0,12,2,22.3,6.1,30.8c4,8.5,9.9,15,17.5,19.5
			c7.7,4.5,17,6.7,27.9,6.7c8.5,0,16.2-1.9,23-5.6c6.8-3.8,12.6-9.2,17.2-16.5c4.7-7.2,8.1-16,10.2-26.4h60.4
			c-4,22.6-11,41.8-21,57.8c-10,16-22.6,28.1-37.9,36.5c-15.3,8.4-32.6,12.6-52,12.6C1048.3,803.9,1028.2,799.4,1011.4,790.4z"/>
		<path class="st5" d="M1231.6,491.3h58.3v309.4h-58.3V491.3z M1252.7,491.3h186.2v56.2h-186.2V491.3z M1252.7,619h162.7v56.2
			h-162.7V619z M1252.7,744.5h186.2v56.2h-186.2V744.5z"/>
		<path class="st5" d="M1546,799.4c-14.1-3-27.4-7.3-39.8-13.1c-12.4-5.7-23.5-12.7-33.3-20.7l27-48.1c11.9,9.8,25.7,17.3,41.3,22.7
			c15.6,5.3,31.6,8,48.1,8c19,0,33.7-3.2,44.3-9.7c10.5-6.4,15.7-15.6,15.7-27.3v-0.2c0-8.2-2.3-14.7-7-19.6
			c-4.7-4.8-10.8-8.4-18.3-10.6c-7.5-2.3-17.2-4.3-28.9-6.2c-0.4-0.2-0.8-0.2-1.2-0.2s-0.7-0.1-1.2-0.2l-4.7-0.6
			c-20.7-3.3-37.9-7.3-51.5-12.2c-13.6-4.9-25.2-13.5-34.7-25.7c-9.5-12.3-14.3-29.7-14.3-52.2v-0.2c0-20,4.5-37.1,13.4-51.3
			c8.9-14.2,21.9-25,38.9-32.4s37.6-11.2,61.7-11.2c11.1,0,22.4,1.3,33.9,3.8c11.6,2.5,22.9,6.2,33.9,11.1
			c11.1,4.8,21.6,10.6,31.5,17.4l-24.7,49.4c-11.9-8.2-24.3-14.6-37.3-19.2s-25.4-6.8-37.3-6.8c-17.9,0-31.7,3-41.5,8.8
			c-9.8,5.9-14.7,14.1-14.7,24.8v0.2c0,8.9,2.5,16,7.7,21.2c5.1,5.2,11.4,9,18.9,11.4c7.5,2.4,18.1,5,31.7,7.7
			c0.6,0.2,1.1,0.3,1.7,0.3c0.6,0.1,1.1,0.2,1.7,0.3c0.9,0.2,1.7,0.3,2.4,0.5c0.8,0.2,1.6,0.4,2.4,0.5c19.6,3.8,35.9,8.5,49,13.9
			c13.1,5.5,24.1,14.3,32.9,26.4c8.8,12.1,13.2,28.7,13.2,49.7v0.4c0,19.7-4.6,36.6-13.8,50.6c-9.2,14-22.7,24.8-40.3,32.1
			c-17.6,7.4-38.9,11.1-63.7,11.1C1574.5,803.9,1560.1,802.4,1546,799.4z"/>
		<path class="st5" d="M1805.7,799.4c-14.1-3-27.4-7.3-39.8-13.1c-12.4-5.7-23.5-12.7-33.3-20.7l27-48.1
			c11.9,9.8,25.7,17.3,41.3,22.7c15.6,5.3,31.6,8,48.1,8c19,0,33.7-3.2,44.3-9.7c10.5-6.4,15.7-15.6,15.7-27.3v-0.2
			c0-8.2-2.3-14.7-7-19.6c-4.7-4.8-10.8-8.4-18.3-10.6s-17.2-4.3-28.9-6.2c-0.4-0.2-0.8-0.2-1.2-0.2s-0.7-0.1-1.2-0.2l-4.7-0.6
			c-20.7-3.3-37.9-7.3-51.5-12.2c-13.6-4.9-25.2-13.5-34.7-25.7c-9.5-12.3-14.3-29.7-14.3-52.2v-0.2c0-20,4.5-37.1,13.4-51.3
			c8.9-14.2,21.9-25,38.9-32.4s37.6-11.2,61.7-11.2c11.1,0,22.4,1.3,33.9,3.8c11.6,2.5,22.9,6.2,33.9,11.1
			c11.1,4.8,21.5,10.6,31.5,17.4l-24.7,49.4c-11.9-8.2-24.4-14.6-37.3-19.2c-13-4.5-25.4-6.8-37.3-6.8c-17.9,0-31.7,3-41.5,8.8
			c-9.8,5.9-14.7,14.1-14.7,24.8v0.2c0,8.9,2.5,16,7.7,21.2c5.1,5.2,11.4,9,18.9,11.4c7.5,2.4,18.1,5,31.7,7.7
			c0.6,0.2,1.1,0.3,1.7,0.3c0.6,0.1,1.1,0.2,1.7,0.3c0.8,0.2,1.7,0.3,2.4,0.5c0.8,0.2,1.6,0.4,2.4,0.5c19.6,3.8,35.9,8.5,49,13.9
			c13.1,5.5,24.1,14.3,32.9,26.4c8.8,12.1,13.2,28.7,13.2,49.7v0.4c0,19.7-4.6,36.6-13.8,50.6c-9.2,14-22.7,24.8-40.3,32.1
			c-17.6,7.4-38.9,11.1-63.7,11.1C1834.3,803.9,1819.9,802.4,1805.7,799.4z"/>
		<path class="st5" d="M431.1,980h59.6v316.2h-59.6L431.1,980L431.1,980z M461.1,1238.8H537c19.6,0,34.7-4.7,45.4-14.1
			c10.7-9.4,16.1-22.8,16.1-40v-93.1c0-17.2-5.4-30.6-16.1-40c-10.7-9.4-25.9-14.1-45.4-14.1h-75.9V980h74.6
			c26.4,0,48.9,4.4,67.5,13.3c18.6,8.8,32.8,21.7,42.5,38.7c9.7,17,14.6,37.4,14.6,61.3v89.6c0,22.8-4.7,42.6-14,59.6
			c-9.4,17-23.4,30.2-42.1,39.6s-41.6,14.1-68.7,14.1h-74.3V1238.8z"/>
		<path class="st5" d="M719,980h59.6v316.2H719V980z M740.5,980h190.3v57.4H740.5V980z M740.5,1110.5h166.3v57.4H740.5V1110.5z
			 M740.5,1238.8h190.3v57.4H740.5V1238.8z"/>
		<path class="st5" d="M985.1,980h72.8l117.6,242.2l-5.2,5.6V980h57v316h-73.3l-117.2-238.5l5.2-5.6v244.2h-57L985.1,980L985.1,980z
			"/>
		<path class="st5" d="M1354.4,1296.1h-61.7V980h61.7V1296.1z"/>
		<path class="st5" d="M1419.6,980h59.6v316.2h-59.6V980z M1441.1,980h190.3v57.4h-190.3L1441.1,980L1441.1,980z M1441.1,1110.5
			h166.3v57.4h-166.3V1110.5z M1441.1,1238.8h190.3v57.4h-190.3L1441.1,1238.8L1441.1,1238.8z"/>
		<path class="st5" d="M1685.8,980h59.6v316.2h-59.6V980z M1715.8,1238.8h75.9c19.6,0,34.7-4.7,45.4-14.1
			c10.7-9.4,16.1-22.8,16.1-40v-93.1c0-17.2-5.4-30.6-16.1-40c-10.7-9.4-25.9-14.1-45.4-14.1h-75.9V980h74.6
			c26.4,0,48.9,4.4,67.5,13.3c18.6,8.8,32.8,21.7,42.5,38.7c9.7,17,14.6,37.4,14.6,61.3v89.6c0,22.8-4.7,42.6-14,59.6
			c-9.4,17-23.4,30.2-42.1,39.6c-18.7,9.4-41.6,14.1-68.7,14.1h-74.4L1715.8,1238.8L1715.8,1238.8z"/>
	</g>
	<g class="st2">
		<g class="st6">
			<path class="st5" d="M1534.8,1034.6c-13.3,1.6-26.8,0.7-39.4-3.8c-10.3-3.7-19.7-9.5-28.6-15.8c-8.3-5.8-16.3-11.9-25.4-16.5
				c-11-5.6-23.4-8-35.7-8.3c-31-0.6-61.1,11.4-89.5,22.3c-15.2,5.9-30.4,11.9-46,16.8c-7.4,2.3-15,3.9-22.3,6.6
				c-5,1.8-9.9,4.3-13.9,8c-6.1,5.7-8.4,13.5-8.4,21.6c0,7.5,1.8,14.9,1.5,22.4c-0.1,3-0.6,6.1-2.3,8.7c-2,2.9-5.8,5.2-9.3,5.7
				c-7.3,0.9-13.2-7.4-17.8-11.8c-7.1-6.8-15.4-11.7-25.5-11.9c-11-0.2-23.1-2.4-31.4-10.2c-5.7-5.2-8.4-13.2-3.3-19.8
				c7.7-10.1,21.8-9.7,32.5-14.1c7.7-3.2,15.2-9.6,11.7-18.7c-1.7-4.5-5.2-8.1-8.9-11.1c-5.4-4.4-11.6-7.8-17.9-10.6
				c-11.7-5.2-24.8-9.2-37.6-5.5c-10.3,3-18.8,10.1-27.7,15.7c-5.6,3.6-11.4,6.7-17.6,9.2c-1.5,0.6-0.8,3,0.7,2.4
				c11.6-4.7,21.4-11.9,31.9-18.5c4.3-2.7,8.9-5.2,13.9-6.6c5.6-1.5,11.4-1.5,17.1-0.5c7.9,1.4,15.5,4.5,22.6,8
				c5.9,2.9,11.7,6.4,16.3,11.2c2.9,3,5.9,6.9,5.7,11.3c-0.2,4.3-3.6,7.4-7.1,9.4c-6.1,3.5-13,4.3-19.6,6.2
				c-5.2,1.5-10.4,3.7-14.6,7.2c-5.9,5-8.3,12.5-4.9,19.6c3.9,8.2,13,13,21.3,15.4c6,1.7,12,2,18.2,2.3c5.3,0.2,10.3,1.9,14.8,4.8
				c7.1,4.5,11.9,11.8,18.8,16.5c6.2,4.2,14,2.5,18.9-3c4.4-5,4-12.3,3.4-18.5c-0.7-7.6-2.1-15.4-0.4-23c2.2-9.9,10.3-16,19.4-19.4
				c7.1-2.6,14.6-4.1,21.8-6.4c7.8-2.5,15.5-5.2,23.2-8.1c29.8-11.1,59.5-24.8,91.2-29.7c14.3-2.2,29.2-2.3,43.2,1.6
				c9.9,2.8,18.7,8,27.1,13.8c8.6,5.9,17,12.3,26.2,17.3c10.2,5.6,21.3,9.2,32.9,10.4c6.9,0.7,13.9,0.4,20.8-0.4
				C1536.3,1036.9,1536.4,1034.4,1534.8,1034.6L1534.8,1034.6z"/>
		</g>
	</g>
	<g class="st2">
		<path class="st7" d="M1263.8,1121.1c-9.3-1.9-18.6-4.2-27.8-6.8c-8.6-2.4-17.7-5.3-23.5-12.1c-17.4-20.5,11-41.6,26-50.4
			c12.3-7.2,26.9-15.6,41.6-13.5c8.3,1.2,16.2,4.6,23.8,8.1c25.5,11.6,51.1,24.7,78.9,28.5c5.8,0.8,54.1,2.1,51.9,9.9
			c-0.4,1.4-1.5,2.4-2.6,3.3c-10.2,8.2-22.8,12.6-35.2,16.8c-31.3,10.5-63.4,20.7-96.4,20.3
			C1288.1,1125.1,1275.9,1123.5,1263.8,1121.1z"/>
		<g class="st6">
			<path d="M1280.9,1059.5c-4.1,7.4,2.3,12.8,7.6,17.7c1.4,1.4,3,2.7,4.8,3.4c3.2,1.3,6.7,1,10.2,0.7c24.5-2.7,49.5-6,73.6-11.2
				c5.7-1.2,11.3-2.7,16.9-4c7.4-1.7,15-4.9,22-7.7c7.1-2.8,13.8-6.9,19.7-11.8c0.1-0.1,0.2-0.2,0.3-0.3c1-0.6,1.9-1.3,2.6-2.6
				c3-3.5,5.1-7.8,3.4-11.8c-2-4.6-7.9-6-12.9-6.4c-15-1.2-30.1,0.4-45,2.7c-10,1.5-20,3.6-30,4.9c-10.2,1.3-20,0.1-30.2,0.4
				C1306.3,1034,1289.4,1044,1280.9,1059.5z"/>
			<path class="st8" d="M1411.6,1011.6c-3,4-8.1,6.6-12.9,5.5c-5.1-1.2-8.5-6-11.3-10.5c-4.4-7.1-8.5-14.6-10.6-22.6
				c-2.4-8.9-3.5-23,5.3-28.9c6.3-4.2,16.5-1.8,21.4,3.5c10.5,11.6,17.4,36.9,9.3,51.2C1412.4,1010.5,1412,1011.1,1411.6,1011.6z"/>
			<path d="M1395.6,940.6c-7.8-8.2-17-14.2-29.1-13.9c-3.3,0.1-6.5,0.6-9.7,0.7c-11.4,0.4-22.7-2.4-33.8,1.9
				c-11.8,4.7-22.6,11.4-33,18.7c-0.8,0.6,19.3,28.2,21.4,30.7c8.3-6.1,6.3,22.6,6.2,26.5c-0.3,9.7-0.6,19.5,1.4,29
				c0.5-0.7,1-1.4,1.9-1.6c1-0.2,1.6,1,2.5,1.2c1.9,0.5,4.5,0,6.4,0c3.7,0,7.4,0,11.1,0c8.5-0.1,17.1-0.1,25.5-1.3
				c4.4-0.6,8.8-1.2,13.2-1.2c2.3-8,1.5-17.7,1.7-25.7c0.2-7.7-0.4-15.2,0.2-22.8c10.9-2.7,21.6-6.1,32-10.3c0.6-0.3-5-13-5.6-14.2
				c-2.4-4.8-5.3-9.4-8.7-13.5C1398.1,943.3,1396.9,941.9,1395.6,940.6z"/>
			<path class="st8" d="M1335,1083.8c-1.6,1.6-34.8,8.9-34.8,8.9l-1.6-16.9l30.9-11.1L1335,1083.8z"/>
			<path d="M1419.1,1063.6c3.9-2.2,7.8-4.4,11.9-6c4.4-1.7,9.3-2.7,12.8-6c3.6-3.5,4.8-8.7,5.7-13.6c1.1-5.5,1.1-11.6-0.4-17
				c-2.1-7.7-8.3-14.1-16.2-15.9c-4.7-1.1-9.8-0.4-14.1,1.7c-3.2,1.6-5.9,4-9.1,5.7c-2.6,1.4-5.5,2.3-8.3,3.4
				c-8.4,3.3-16.2,8.2-23.9,12.8c-7.7,4.7-14.6,10.5-22.1,15.6c-3,2-33.9,17-33.9,17c4,8.9,7.5,18.1,11.2,27.2
				c20-2.7,39.3-9,58.8-14.2c3.9-1,7.5-2.6,11.3-3.5c4.4-1,8.4-2.9,12.4-5.1C1416.5,1065.1,1417.8,1064.4,1419.1,1063.6z"/>
			<path d="M1299.1,1094.5c-6.1,1.2-12.3-0.1-18.9-0.8c-5.2-0.6-10.4,0.4-15.6-0.4c-6.8-1.1-12.2-5.9-12.7-12.7
				c-0.3-3.8-0.4-8.2,2.1-11c2.1-2.4,5.5-3.2,8.7-2.9c3.1,0.3,6.1,1.5,9.1,2.5c5.1,1.8,10.4,3,15.6,4.1c4.3,0.9,8,3,12.2,0.9
				c0.2-0.1,0.5-0.2,0.7-0.2c0.3,0.1,0.4,0.4,0.5,0.6c1.5,4.2,2.9,8.5,4.1,12.9c0.6,2.3,1.7,3.6-0.2,5
				C1303.3,1093.6,1300.8,1094.1,1299.1,1094.5z"/>
			<path class="st8" d="M1365.3,1083.8c1.6,1.6,34.8,8.9,34.8,8.9l1.6-16.9l-30.9-11.1L1365.3,1083.8z"/>
			<path d="M1280.1,1065.6c-6.4-2.4-12.6-5.3-18.5-8.8c-2-1.2-3.9-2.5-5.4-4.3c-2-2.6-2.7-5.9-3.3-9.1c-2.3-11.9-5.5-21.1,3.2-31.2
				c7.1-8.3,18.4-11.5,28-5.5c6.2,3.9,10.4,10.9,17.3,13.3c3.7,1.3,8,1.1,11.6,2.7c3.3,1.5,6.6,4.1,9.7,6
				c7.7,4.7,14.6,10.5,22.1,15.6c3,2,33.9,17,33.9,17c-4,8.9-7.5,18.1-11.2,27.2c-20-2.7-39.3-9-58.8-14.2
				C1299.2,1071.8,1289.4,1069.1,1280.1,1065.6z"/>
			<path d="M1401.3,1094.5c6.1,1.2,12.3-0.1,18.9-0.8c5.2-0.6,10.4,0.4,15.6-0.4c6.5-1,13.9-7.4,14.2-14.3c0.1-2.1-0.5-4.3-1.3-6.3
				c-0.4-1.1-0.9-2.1-1.6-3c-1.6-2-4.1-3.2-6.6-3.4c-3.9-0.4-7.8,0.9-11.4,2c-3.8,1.1-7.3,1.7-10.9,3.3c-4.7,2-10,2.8-15.1,2.1
				c-1.3-0.2-2.7-0.4-4-0.1c-2.9,0.8-2.6,5.2-2.8,7.6c-0.3,3.6-0.5,7.2-1.9,10.6C1396.5,1093.2,1398.9,1094,1401.3,1094.5z"/>
			<path class="st8" d="M1386.4,955.5c0,0,0-0.1,0-0.1c-0.1-1.4-0.2-2.8-0.3-4.2c0-0.7-0.1-1.4,0-2.2c0.4-2.2,2.1-3.8,3.7-5.3
				c1.2-1.1,11.7-11.3,12.5-10.7c3.3,2.5,5.3,0.3,7.6-2.3c0.7-0.8,1.5-1.7,1.4-2.8c0-1.1-1.3-2.1-2.2-1.4c1.9-2.1,3.7-4.2,5.5-6.4
				c1.6-1.9,3.1-3.1,2.1-5.7c-1.7-4.1-5.3-7.2-9.3-9.1c-3.2-1.5-8.2-3.7-11.8-3.5c-4,0.3-6,3.6-9,5.7c-0.1,0.1-0.3,0.2-0.4,0.2
				c-0.2,0-0.3-0.2-0.5-0.3c-1.1-1-2.9-0.8-4.1,0.1c-1.2,0.9-1.9,2.3-2.4,3.7c-0.3,0.9-0.7,1.8-0.5,2.8c0.2,0.9,1,1.8,2,1.7
				c-0.7,0.1-2,5.8-2.2,6.5c-1,3.6-3.2,5.6-5.7,8.4c-2.3,2.5-5,5.2-8.4,5.1c-1.5-0.1-3.4-0.6-4.2,0.7c-0.3,0.4-0.4,0.9-0.4,1.4
				c-0.6,7.4,4.2,14,10.1,17.8C1373.2,957.5,1386.7,963.1,1386.4,955.5z"/>
			<path class="st9" d="M1384.4,1042.7h-85.1c-1.5,0-2.8-1.2-2.8-2.8v-51.3c0-1.5,1.2-2.8,2.8-2.8h85.1c1.5,0,2.8,1.2,2.8,2.8v51.3
				C1387.1,1041.5,1385.9,1042.7,1384.4,1042.7z"/>
			<path class="st2" d="M1347.2,1012.5c0,2.9-2.4,5.3-5.3,5.3s-5.3-2.4-5.3-5.3c0-2.9,2.4-5.3,5.3-5.3
				C1344.8,1007.2,1347.2,1009.6,1347.2,1012.5z"/>
			<path class="st8" d="M1400.4,935.8c0.2-0.5,0.4-1,0.7-1.5c1.8-3.8,5.9-5.4,9.1-8.2c2-1.7,4-3,6-4.6c1-0.8,1.8-1.9,2.8-2.5
				c0.7-0.4,1.6-0.5,2.2,0c0.5,0.4,0.6,1.1,0.6,1.7c0.3,4-1.9,7-3.9,10.2c-1.7,2.8-4.3,4.5-6.1,7.2c-1.7,2.7-1.4,6.1-1.1,9.3
				c0.6,5.3,1.2,10.6,1.7,15.9c0.5,5,1.8,9.1,3,13.9c1.8,7.4,1.7,16,1.8,23.5c0.1,7.6-4.9,16.7-12.8,18.3
				c-15.9,3.2-12.4-19.2-12.8-28.2c-0.3-7.2,1.4-14.5,3-21.4c1.7-7.2,1.9-14.7,2.9-22C1398.2,943.7,1398.9,939.6,1400.4,935.8z"/>
			<path class="st1" d="M1400.4,1011.1c0,0.7,0,1.3-0.1,1.9c-0.2,1.4-1.2,2.8-2.6,3c-1.5,0.2-2.8-0.9-3.9-2
				c-4-4.4-6.1-10.2-6.1-16.2c0-1.7,0.2-3.5,1.2-4.9c1-1.4,3-2.2,4.4-1.3c1,0.6,1.4,1.8,1.8,2.8c1.3,3.6,2.7,7.3,4,10.9
				C1399.8,1006.9,1400.3,1009.2,1400.4,1011.1z"/>
			<g>
				<path class="st5" d="M1393.1,1041.4h-66.5c-5.8,0-10.5-4.7-10.5-10.5v-44.6c0-5.8,4.7-10.5,10.5-10.5h66.5
					c5.8,0,10.5,4.7,10.5,10.5v44.6C1403.6,1036.7,1398.9,1041.4,1393.1,1041.4z"/>
				<circle cx="1359.9" cy="1002.3" r="10.4"/>
				<path d="M1360.3,1031.2h-1c-2.5,0-4.5-2-4.5-4.5v-16.2c0-2.5,2-4.5,4.5-4.5h1c2.5,0,4.5,2,4.5,4.5v16.2
					C1364.8,1029.2,1362.8,1031.2,1360.3,1031.2z"/>
				<path class="st8" d="M1333.7,978.4c0-17.4,3.8-41.6,26.2-41.6c22.8,0,26.2,25,26.2,41.6h-8.4c0,0,2-34.2-17.8-34.2
					c-19.7,0-18.1,34.2-18.1,34.2H1333.7z"/>
			</g>
			<path class="st8" d="M1320.4,1029.6c-5.8,0.2-8.7-0.1-12.1-7.2c-1.2-2.6-4.4-8.9-5.3-11.6c-2.8-8.3-9-15.5-16.9-19.5
				c6.1-5.8,14.3-8.6,21.8-12.5c6.8-3.6,13.2-8.1,18.8-13.3c5.2-4.9,13.2-15.3,8.9-22.9c-3.5-6.1-12-4.2-17.6-2.8
				c-7.7,2-14.5,2.3-21.4,6.9c-6.7,4.4-12.2,10.3-17.6,16.2c-8.5,9.2-26.9,27.2-14.8,40.2c6.8,7.3,13.9,14.3,22.1,20.1
				c2.3,1.6,4.7,3.2,7.3,4.3c5.1,2.3,7.1,6.4,12.2,8.7c4.3,1.9,8.8,3.3,13.5,3.5c3.5,0.2,10.1-1.8,10.4-6
				C1330.2,1029.8,1325,1029.9,1320.4,1029.6z"/>
			<path d="M1425,904.4c-0.1-0.6-0.2-1.1-0.4-1.6c-0.5-1.4-1.5-2.6-2.8-3.3c-1-0.5-2.2-0.7-3.3-0.8c-1.3-0.1-2.7-0.1-4-0.1
				c-1.3,0.1-2.6,0.2-3.9,0.2c-2-0.1-3.9-0.9-5.8-1.6c-1.9-0.7-3.8-1.5-5.8-1.6c-4.2-0.3-7.2,2.9-9.7,5.8c-2.8,3.3-5,7.1-7,10.9
				c-4,7.4-5.2,16.5,2.3,22.3c9.8,7.5,21.5-2.7,28.9-9c1.5-1.3,3.2-2.1,4.6-3.6c1.5-1.7,2.6-3.6,3.7-5.6c1-1.9,2-3.9,2.7-5.9
				C1424.9,908.5,1425.4,906.4,1425,904.4z M1391.6,929.3c-1.5-0.4-3.2-0.8-4.4-1.8c-0.9-0.7,0.1-2.1,1-1.4c1,0.9,2.6,1.2,3.9,1.5
				C1393,927.8,1392.5,929.5,1391.6,929.3z M1415,916.3c-0.3,1.1-0.9,2-1.6,2.9c-3.1,4.1-7.6,9.3-12.1,11.8
				c-0.2,0.1-0.3,0.2-0.5,0.3c-1.2-4.2-2.8-8.4-6.6-10.9c-3.4-2.2-7.4-2.5-11.3-2c1.4-5.9,5.9-14.8,12.7-14.9c2.5,0,4.9,1.1,7,2.6
				c2.1,1.4,3.9,3.2,6.1,4.6C1411,912.3,1416,912.6,1415,916.3z"/>
			<path d="M1406,1012.5c-0.8,0.5-1.6,0.8-2.5,0.7c-0.7-0.1-0.8,1-0.2,1.2c1.4,0.4,2.6,0.1,3.5-1.1
				C1407.2,1012.9,1406.5,1012.2,1406,1012.5z"/>
			<path d="M1269.3,992.1c-0.7-0.6-1.1-1.5-1-2.5c0.1-0.7-0.2-1.4-0.9-1.6c-0.6-0.2-1.5,0.2-1.6,0.9c-0.3,1.9,0.2,3.7,1.6,5.1
				C1268.6,995.1,1270.5,993.2,1269.3,992.1z"/>
			<path class="st10" d="M1319.2,1078.5c8.3,2,16.6,3.7,25,5"/>
			<path class="st10" d="M1374.9,1070.6c1.1-2.6,2.3-5.2,3.6-7.8c-10.8-6-21.3-12.5-32-18.7"/>
			<path class="st10" d="M1305.4,1073c-7.8-1.9-15.5-4.3-23-7.4"/>
			<path d="M1307.8,936.7l-17.7,11.3l21.4,30.7c0,0,19.4-12.4,22.2-17.5c2.8-5.2,14.2-19.4,9.4-23.9c-4.9-4.6-10.9-10.1-18.8-8.3
				c-2.8,0.6-11.5,5.2-11.5,5.2L1307.8,936.7z"/>
		</g>
	</g>
	<g class="st2">
		<path class="st7" d="M872.1,1089.4c-0.7,1.2-1,2.5-1,4c0.1,2.7,2.2,5.1,4.6,6.2c2.5,1.2,5.3,1.3,8,1.2c8.6-0.3,16.9-2.7,24.9-5.9
			c7-2.8,15.4-5.6,20.9-11c1.4-1.4,2.3-3.6,1.2-5.2c-0.8-1.2-2.3-1.6-3.7-1.8c-10.6-1.8-21.7-1.3-32.1,1.3
			C889,1079.8,875.8,1082.8,872.1,1089.4z"/>
		<g class="st6">
			<path d="M916.6,1008.3c0-0.3,0-0.6,0.1-0.9c0.5-3.1,3-5.5,4.6-8.1c1.6-2.6,2.6-5.6,2.7-8.7c0.2-5.7,0.1-13.1,2.5-18.4
				c2.2-4.8,7.5-7.4,10.2-11.9c1.5-2.5,2-5.4,2.6-8.2c1.1-4.5,2.8-8.9,5.8-12.4c2.3-2.7,5.4-4.8,8.4-6.7c2.9-1.9,5.9-3.9,9.2-5.1
				c4.3-1.5,9.1-2,11.1,2.4c1.6,3.6,0.8,8.7-0.9,12.1c-1.5,3-3.8,5.4-6.1,7.8c-3.8,4.3-7.4,8.8-10.5,13.6c-0.9,1.3-1.8,2.7-2,4.3
				c-0.2,1.5,0.3,3.1,0.5,4.6c1,7.8-2.2,14.1-8.3,18.9c-4.8,3.8-7.7,5.9-8.9,12.4c-0.7,4-1.1,8.3-3.3,11.7c-0.9,1.4-2.1,2.6-3.2,3.9
				c-4,4.7-6.5,10.7-7.1,16.9c-0.3,3.1-0.9,10.1-5.9,8.6c-6.1-1.7-5.3-19.4-3.5-23.6c0.8-1.8,1.9-3.4,2.3-5.3
				C917.4,1013.5,916.5,1010.9,916.6,1008.3z"/>
			<path class="st8" d="M890.9,1021.2c0-2.3,0.3-4.6,1.1-7c1-3,2.5-5.9,2.1-9c-0.8-5.1-6.6-7.8-8.5-12.7c-2.5-6.6,3.4-13.2,4.7-20.1
				c1.1-5.9-1.1-11.8-2.6-17.5c-0.7-2.5-4.4-16.7,3-14.4c1.2,0.4,1.9,1.5,2.5,2.5c3.6,6.8,4.5,15.4,10.2,21c2.3,2.3,5.3,3.8,7.6,6.2
				c3.5,3.8,4.5,9.5,3.7,14.6c-1.4,9-10.2,15-6.7,24.1c1.5,3.8,4,7.1,6,10.7c4.3,7.3,12.9,36.7-4.5,26.6
				C900.1,1040.8,891.1,1032.1,890.9,1021.2z"/>
			<path class="st8" d="M925.4,1021.8c0.1-0.2,0.2-0.4,0.3-0.6c2.2-4.2,5.1-7.9,7.3-12c1.8-3.3,3.2-6.9,5.2-10.1s4.8-6.1,8.5-7.3
				c2.2-0.7,5.9-0.3,7.6,1.4c0.6,0.6,1,1.2,1.6,1.8c1,1,2.4,1.6,3.6,2.4c6.3,3.8,9,11,11.3,17.6c2.5,7.2,5.6,13.4,6.6,21
				c0.2,1.7,0.4,3.7-0.8,4.9c-1,1.1-2.7,1.2-4.1,0.8c-1.4-0.5-2.5-1.4-3.6-2.4c-1.4-1.3-2.8-2.7-3.6-4.4c-0.7-1.4-1-3.1-1.8-4.4
				c-1-1.7-2.6-2.9-4-4.1c-4.2-3.6-6.8-8-9.8-12.6c-3,1.2-6,5.2-9.3,7c-2.9,1.5-7.7,2.1-9.3,5.3c-1.6,3.1-0.8,7.7-2,11.1
				c-2.5,7.7-8.4,6.6-7.6-1.6C921.9,1030.8,923.2,1026.1,925.4,1021.8z"/>
			<polygon points="944,1036.5 887.5,1036.5 887.5,1043.5 892,1043.5 898.7,1081.2 932.8,1081.2 939.4,1043.5 944,1043.5 			"/>
			<line class="st10" x1="890.5" y1="1044.1" x2="941" y2="1044.1"/>
			<g>
				<circle cx="890.3" cy="987.9" r="1.4"/>
				<path d="M904,993.4c0,0.8-0.6,1.4-1.4,1.4c-0.8,0-1.4-0.6-1.4-1.4c0-0.8,0.6-1.4,1.4-1.4C903.4,992,904,992.7,904,993.4z"/>
				<path d="M901.3,1008.6c0,0.8-0.6,1.4-1.4,1.4c-0.8,0-1.4-0.6-1.4-1.4s0.6-1.4,1.4-1.4C900.7,1007.2,901.3,1007.8,901.3,1008.6z"
					/>
				<path d="M909.5,978.3c0,0.8-0.6,1.4-1.4,1.4c-0.8,0-1.4-0.6-1.4-1.4c0-0.8,0.6-1.4,1.4-1.4S909.5,977.5,909.5,978.3z"/>
				<path d="M893,950.7c0,0.8-0.6,1.4-1.4,1.4c-0.8,0-1.4-0.6-1.4-1.4c0-0.8,0.6-1.4,1.4-1.4C892.4,949.4,893,950,893,950.7z"/>
				<circle cx="910.9" cy="1025.1" r="1.4"/>
				<path d="M899.9,1022.3c0,0.8-0.6,1.4-1.4,1.4c-0.8,0-1.4-0.6-1.4-1.4c0-0.8,0.6-1.4,1.4-1.4
					C899.3,1021,899.9,1021.6,899.9,1022.3z"/>
				<path d="M898.5,971.4c0,0.8-0.6,1.4-1.4,1.4c-0.8,0-1.4-0.6-1.4-1.4c0-0.8,0.6-1.4,1.4-1.4C897.9,970,898.5,970.6,898.5,971.4z"
					/>
			</g>
		</g>
	</g>
	<g class="st2">
		<g class="st6">
			<path class="st5" d="M731.9,894.6c13.6,3.6,27.1,7.7,40.2,13c9.5,3.8,18.8,8.2,27.4,13.8c10,6.5,20.4,15.4,23.1,27.6
				c2,8.6-0.9,17.3-6,24.4c-5.1,7.3-12.3,13.2-20,17.8c-4.9,2.9-9.9,4.7-14.8,7.4c-9.3,5.1-17.4,12.8-22.2,22.4
				c-3.6,7.2-5.5,16.1-2.7,23.9c3.2,9,13,14.5,22.1,15.9c11.1,1.7,22.3-1.4,33.2-2.9c6.1-0.8,12.2-1.2,18.3-0.5
				c3.2,0.4,6.4,1.1,9.4,2.1c2.8,0.9,5.6,2.1,8.5,2.8c9.5,2.3,19,0.5,28.1-2.3c8.9-2.8,17.8-6.3,27.3-6.6
				c21.6-0.7,37.1,16,49.4,31.6c5.4,6.8,10.7,13.8,17.4,19.5c7.2,6.2,15.7,10.4,25,12.3c5.8,1.2,11.7,1.5,17.5,1.4
				c1.6,0,1.6-2.5,0-2.5c-10.9,0.3-21.9-1.3-31.6-6.6c-7.7-4.2-14-10.4-19.6-17.1c-5.7-6.8-10.9-14.1-17-20.6
				c-7.3-7.9-16.2-14.8-26.5-18.2c-9.6-3.2-19.5-2.3-29.1,0.4c-8.9,2.5-17.6,6.3-27,7.3c-4.8,0.5-9.6,0.3-14.3-1
				c-3-0.8-5.8-2.1-8.8-3c-3-0.9-6.1-1.5-9.2-1.8c-12-1.3-23.6,1.7-35.4,3.3c-5.3,0.7-10.8,1.1-16.1,0.1c-5.6-1.1-10.8-3.7-15-7.5
				c-5.7-5.2-6.3-13.5-4.6-20.6c2.3-9.7,8.6-18,16.3-24.2c4.4-3.5,9.2-6.1,14.4-8.3c1.8-0.8,3.6-1.7,5.4-2.6
				c7.9-4.3,15.3-9.9,21-16.8c5.8-6.9,10.1-15.4,9.7-24.6c-0.4-11.4-7.8-21-16.2-28c-6.7-5.6-14.2-10.1-22-13.9
				c-10.8-5.4-22.1-9.6-33.6-13.3c-7.1-2.3-14.2-4.3-21.4-6.2C731,891.8,730.3,894.2,731.9,894.6L731.9,894.6z"/>
		</g>
	</g>
	<g>
		<path class="st11" d="M304,1478.6c0,0-34.8-36.2-95.1-8.3c-60.3,28-161.4,4.1-148.9,82.8c5.2,32.8,58.9,70.1,124.1,74.5
			c59.8,4,121.7-31.3,177.9-29c99.3,4.1,132.7-50.5,95.1-99.3c-37.5-48.8-37.9-44.6-94.7-45.1c-50.1-0.4-62.5,12-62.5,12L304,1478.6
			z"/>
		<path d="M299.9,1512.2c3.1,0.1,6.2-0.3,8.6-0.7c12.2-1.8,24.5,0.6,36.7,1.2c6.1,0.3,11.7-0.6,17.7-0.9c4.7-0.2,9,0.1,13-3.1
			c2.2-1.8,3.6-4.8,2.8-7.6c-1.2-3.9-5.9-5.3-9.9-6.2c-9.7-2-19.5-4-29.3-6c-3.9-0.8-11.6-2.5-12.5-7.4c-0.4-2.4,0.9-6.3,1.2-8.8
			c0.3-3.1,0.5-6.2,0.6-9.3c0.2-5.6,2-11.1-5.1-11.5c-7.6-0.4-15.2-0.8-22.8-1.2c-0.7,0-1.5-0.1-2.1,0.2c-1.1,0.6-1.6,1.9-1.9,3.1
			c-1,4.2-2.1,8.4-3.1,12.6c-1.6,6.5-3.2,13-4.2,19.6c-0.7,4.7-0.6,9.4-1.1,14.2c-0.3,2.9-1,5.8,1.1,8.2
			C291.9,1511.3,295.9,1512.1,299.9,1512.2z"/>
		<path d="M356.6,1537.7c0.4,2,1.3,3.4,2.8,4.2c3,1.5,8.2,1.2,11.6,1.8c5.5,1,11,1.6,16.6,1.1c4.1-0.4,8.2-1.3,12.3-1.5
			c11.8-0.5,23.8,4,35.4,0.7c4-1.2,10.8-3.7,12-8.3c1.6-6-3.8-9.8-8.8-11.2c-6.4-1.8-13.1-2.6-19.7-2.8c-2.7-0.1-5.4,0-8-0.6
			c-6.7-1.5-9.3-6.9-7.8-13.1c2-8.3,3.9-16.6,5.9-24.8c-13.6-1.9-27.4,0.4-41,2.7c-0.9,0.1-1.8,0.3-2.3,0.9
			c-0.4,0.5-0.6,1.1-0.7,1.7c-2.1,9-1,17.5-4.1,26.2C359.3,1518.9,355.2,1530.9,356.6,1537.7z"/>
		<path d="M377.7,1270.9c-4.2-20-40.3-18.5-56.6-21.3c-22.1-3.8-44.2-7.5-66.3-11.5c-5-0.9-10.5-1.6-15,1.2c-2.5,1.5-4.3,4-5.9,6.3
			c-6.6,9.5-12.2,19.8-13.9,30.8c-1.7,11,0.9,22.6,9,29.6c7.3,6.3,17.8,8,27.7,9.3c6.1,0.8,11.8,2.2,17.8,3.2
			c3.4,0.6,6.9,0.2,9.8,2.1c8.6,5.8,6.3,19.7,4,28.7c-2.2,8.5-5,17.4-2.8,25.6c0.6,2.2,1.5,4.3,1.9,6.6c0.4,2.8-0.1,5.8-0.6,8.7
			c-2.7,15.3-8.1,31.7-2.2,46.2c0.7,1.7,1.6,3.4,1.9,5.2c0.2,1.5,0.1,3.1-0.1,4.7c-1.2,10.4-2.4,20.7-3.6,31.1
			c0,0,35.5,1.6,38.2,1.7c4.1,0.1,13.1,1.6,16.8-0.7c5.8-3.5,6.9-20.7,7.9-27c1.4-9,2-18.1,3.7-27c3.1-16.1,9.8-31.3,12.7-47.4
			c1.5-8,0.9-16.5,2.5-24.5c1.4-6.7,3.1-13.4,4.2-20.2c2.7-16.4,5.5-32.8,8.2-49.2c0.6-3.7,1.2-7.5,0.7-11.2
			C377.8,1271.6,377.7,1271.3,377.7,1270.9z"/>
		<path d="M370.7,1363.3c-1,2.7-2.1,5.4-3.1,8.1c-2.6,6.9-5.3,13.9-5.7,21.2c-0.4,7.4,1.6,14.7,1.8,22c0.3,12.6-6.1,23.4-6.2,35.6
			c0,4.5,1.2,9,1.6,13.5c0.3,4.6-0.3,9.2-0.9,13.7c-1,7.4-2,14.7-3,22.1c-0.8,6.1-2.7,10.1,4.2,10.7c18.3,1.8,35.8-1,54-2.2
			c0.7-0.1,1.6-0.1,2.1-0.7c0.4-0.4,0.6-1,0.7-1.5c6.6-25.5,12.8-50.2,16-76.3c0.3-2.3,0.6-4.7,1.5-6.9c1.3-2.7,3.5-4.8,5.4-7.1
			c4.7-5.8,4.8-11.8,6.8-18.5c2-6.5,4.3-12.8,5.7-19.6c3.4-16.1,6.9-32.1,10.2-48.1c2.8-13.3,6.1-25.2-0.9-37.9
			c-2.3-4.1-5.9-7.3-9.6-10.3c-31.9-25.8-72.3-40.9-113.2-42.2c-15.3-0.5-34.6-1.5-40.3-15.7c-2.2-5.4-1.6-11.4-2.5-17.1
			c-2.5-16.7-28.4-20.6-41.9-16.2c-18.2,5.9-23.8,28.4-25.9,47.4c-1.7,15.6-2.7,31.6,1.7,46.6c6.7,22.3,25.3,39.7,46.6,49.1
			c16.8,7.4,35.1,10.1,53.3,11.1c13.9,0.8,27.6-1.8,41.3-3.4c9.7-1.1,8.2,1.7,5.1,9.7C374,1354.7,372.4,1359,370.7,1363.3z"/>
		<path class="st12" d="M248.6,949.2c0.5,2.4,1,4.8,1.4,7.3c0.8,4.8,1.3,10.3-2,13.9c-1.9,2.1-4.7,3.2-6.6,5.3
			c-2.8,3.1-3,7.7-2.4,11.8c0.7,4.9,0.8,9.3,1,14c0.3,5.1,2.5,9.9,2.3,15.2c-0.4,10-7.7,16.6-17.3,15.9c-5.7-0.4-12.2-1.2-15.6-5.8
			c-1.7-2.2-2.3-5.1-3-7.8c-4.7-20.5-9.4-42-4.1-62.4c2-7.5,4.4-16.4,8.9-22.9c3.2-4.7,6.8-10.8,11.3-14.3
			c4.2-3.3,10.5-4.5,14.8-1.3c2.8,2.1,4.2,5.7,5.3,9C245.1,934.5,247,941.8,248.6,949.2z"/>
		<g>
			<path class="st12" d="M408.2,450.4H258.7c-13.3,0-24.1-10.8-24.1-24.1V276.8c0-13.3,10.8-24.1,24.1-24.1h149.5
				c13.3,0,24.1,10.8,24.1,24.1v149.5C432.3,439.6,421.5,450.4,408.2,450.4z"/>
		</g>
		<g>
			<circle class="st13" cx="333.4" cy="351.6" r="62.6"/>
			<line class="st13" x1="287.2" y1="314.3" x2="384.1" y2="390.4"/>
		</g>
		<path class="st12" d="M300.8,1034.3c1.2-7.5,5.5-14.7,12.2-18.6c7.2-4.2,14.6-8.4,22.5-11.3c1-0.4,2.1-0.8,3.1-1.1
			c20.7-7.4,42.4-11.9,62.7-20.2c22.5-9.2,44.1-20.1,66.1-30.3c14.8-6.8,29.1-14.2,42.2-24c11.1-8.3,7.6-25.1,12.9-36.5
			c2.3-4.9,6.6-10.1,10.6-3.4c3.7,6.2,2.6,14.5,3.5,21.4c0.9,6.9,1.8,13.8-1.2,20.4c-2.1,4.6-6,8.1-9.8,11.5
			c-3.6,3.2-7.3,6.5-10.9,9.8c-4.2,3.7-8.3,7.8-12.8,11.2c-13.9,10.5-27.3,21.7-40.2,33.4c-12.7,11.6-24.3,23.5-38.9,33
			c-14.1,9.1-30.2,16.9-46.4,21.2c-0.3,0.1-0.5,0.1-0.8,0.2c-16.1,4.4-30.9,11-48.2,9.2C314.1,1058.7,298.2,1049.9,300.8,1034.3z"/>
		<path d="M290.9,1200.8c0,0.5-44.2,2.8-48.3,3c-8,0.5-18.2,2.9-26.1,1.6c-5-0.9-7.2-6.1-13.1-5c-3.6,0.7-7.8,2-10.4-0.6
			c-1.7-1.6-1.9-4.2-2-6.5c-0.9-16.6-1.8-33.3-2.8-50c-0.8-13.7-17.7-17.5-27.6-23.8c-6.7-4.3-13.5-8.5-20.2-12.8
			c12.6-27.2,30.2-50.9,50.9-72.5c21.7-22.6,37.1-24.7,68.8-25c25.7-0.2,51.3-3.7,76.1-10.1c5.9,21.1,12.2,42.3,17.9,63.3
			c-14.6,7.9-32.3,13.6-48.1,18.9c-4.7,1.8-9.8,3.9-12.3,8.2c-2,3.4-2.1,7.5-2.1,11.5C291.5,1134.3,291.2,1167.5,290.9,1200.8z"/>
		<g>
			<path class="st14" d="M245.6,1241.6c11.9,1.4,23.8,2.9,35.7,4.3c21.4,2.6,44.6,6,59.4,21.7c9.2,9.8,13.8,23.2,15.2,36.6
				c1.4,13.4-0.1,26.9-1.6,40.2"/>
			
				<rect id="XMLID_00000171000844553106916180000011350111695110699393_" x="213.8" y="1339" class="st15" width="7.2" height="159.8"/>
			<path id="XMLID_00000147914733433454001560000010495065533103575732_" class="st16" d="M154.1,1532.3c0-23.6,41.7-33.5,62.6-33.5
				c24.8-0.1,62.6,9.1,62.6,33.5"/>
			
				<line id="XMLID_00000143583111324670064260000001293994680285377453_" class="st16" x1="217.4" y1="1538.6" x2="217.4" y2="1499.4"/>
			<path id="XMLID_00000128480341642446403990000000205790329957520297_" class="st15" d="M289.5,1538c0,5.6-4.6,10.2-10.2,10.2
				c-5.6,0-10.2-4.6-10.2-10.2c0-5.6,4.6-10.2,10.2-10.2C285,1527.7,289.5,1532.3,289.5,1538z"/>
			<path id="XMLID_00000139256592371457387230000000020011400225705375_" class="st15" d="M227.5,1538c0,5.6-4.6,10.2-10.2,10.2
				c-5.6,0-10.2-4.6-10.2-10.2c0-5.6,4.6-10.2,10.2-10.2C222.9,1527.7,227.5,1532.3,227.5,1538z"/>
			<path id="XMLID_00000003080601384513248740000003237850610667243949_" class="st15" d="M165.4,1538c0,5.6-4.6,10.2-10.2,10.2
				s-10.2-4.6-10.2-10.2c0-5.6,4.6-10.2,10.2-10.2C160.8,1527.7,165.4,1532.3,165.4,1538z"/>
			<path id="XMLID_00000027586386339546171100000014432352031083976078_" class="st12" d="M266.6,1278.9v-137.2
				c0-23.7-21.8-43-48.6-43h-53.6c-26.9,0-48.6,19.2-48.6,43V1295c0,33.9,31.3,61.6,69.6,61.6h80.2H360c4.5,0,8.2-3.2,8.2-7.2l0,0
				c0-4-3.7-7.2-8.2-7.2h-21.8C298.6,1342.1,266.6,1313.8,266.6,1278.9z"/>
		</g>
		<path class="st5" d="M173.9,910.8c-7.3,0.4-14.6,0.7-21.3,3.1c-13.3,4.7-19.4,14.7-26.1,25.7c-6.8,11.1-2.4,36.3-19,48.7
			c-23.9,17.9-37.2,42.4-37.2,66.2c0,16.6,10.3,28.4,16.6,33.1c34.8,26.3,115.9-29.9,136.1-66.8c10.7-19.5,6.6-43.5,2.3-65.3
			c-2.4-12-1-21.5,11.5-27.7c3.2-1.6,6.7-2.6,9.7-4.6c7.3-4.8,9.8-15.2,6.6-23.3c-3.3-8.1-11.6-13.6-20.3-14.5
			c-3.8-0.4-7.7-0.1-11.1,1.4c-8.3,3.5-12.9,12.3-20.3,17.4C193.3,909.7,183.7,910.3,173.9,910.8z"/>
		<path d="M403.1,1023.6c-0.4,0.2-0.3,0.8,0,1.2c1.5,2.4,4.5,3.6,7.3,3.3c2.8-0.2,5.4-1.7,7.5-3.5"/>
		<g>
			<g>
				<path class="st1" d="M301.9,1187c-1.4,0-2.8,0.3-4.1,0.8c-0.7,0.2-1.4,0.6-2.1,0.9c-0.4,0.2-0.8,0.4-1.3,0.5
					c-0.1,0.1-0.3,0.1-0.4,0.2c1.2-0.6,0.5-0.2,0.2-0.1c-1.3,0.6-2.8,1.1-4.2,1.4c-0.4,0.1-0.9,0.2-1.3,0.3c-0.2,0-0.4,0.1-0.6,0.1
					c-0.5,0.1,1-0.1,0.2,0c-1,0.1-2,0.1-3,0.1c-2.1-0.1-4.2,1.9-4.1,4.1c0.1,2.3,1.8,4,4.1,4.1c3.7,0.1,7.3-0.7,10.7-2
					c0.9-0.4,1.7-0.7,2.6-1.1c0.2-0.1,0.3-0.2,0.5-0.2c-0.1,0.1-1,0.4-0.4,0.2c0.3-0.1,0.6-0.2,0.8-0.3c0.5-0.2,1.1-0.4,1.6-0.5
					c0.2-0.1,0.5-0.1,0.7-0.2c-1.1,0.3-0.9,0.1-0.5,0.1c0.1,0,0.3,0,0.4,0c2.1,0,4.2-1.8,4.1-4.1
					C305.9,1188.9,304.2,1186.9,301.9,1187L301.9,1187z"/>
			</g>
		</g>
	</g>
	<g class="st2">
		<circle class="st6" cx="1086.5" cy="550.4" r="10"/>
		<circle class="st6" cx="1287.6" cy="550.4" r="10"/>
		<circle class="st6" cx="885.5" cy="550.4" r="10"/>
		<path class="st17" d="M921,546.7v-0.3c0-19.5-15.8-35.3-35.3-35.3l0,0c-19.5,0-35.3,15.8-35.3,35.3v0.3H921z"/>
		<path class="st17" d="M1322.5,546.7v-0.3c0-19.5-15.8-35.3-35.3-35.3l0,0c-19.5,0-35.3,15.8-35.3,35.3v0.3H1322.5z"/>
		<line class="st18" x1="1288" y1="456.1" x2="1288" y2="511.1"/>
		<path class="st17" d="M1121.5,546.7v-0.3c0-19.5-15.8-35.3-35.3-35.3l0,0c-19.5,0-35.3,15.8-35.3,35.3v0.3H1121.5z"/>
		<line class="st18" x1="1087" y1="456.1" x2="1087" y2="511.1"/>
		<line class="st18" x1="887.2" y1="456.1" x2="887.2" y2="511.1"/>
	</g>
	<path class="st2" d="M1067.1,1031.6c7.5-2.5,15.1-9.6,12.5-16.4c-4.2-11.2-21.1-0.4-21.1-0.4S1066.1,1030.3,1067.1,1031.6z"/>
	<path class="st2" d="M1026.3,1107.1c-7.9-0.7-17.7,2.9-17.9,10.3c-0.5,12,19.3,8.6,19.3,8.6S1026.7,1108.6,1026.3,1107.1z"/>
	<g class="st2">
		<g class="st6">
			<path d="M1025.8,1114c2.3-0.4,4.6-0.8,6.8-1.2c1-0.2,1.6-1.4,1.3-2.3c-0.3-1-1.3-1.5-2.3-1.3c-2.3,0.4-4.6,0.8-6.8,1.2
				c-1,0.2-1.6,1.4-1.3,2.3C1023.8,1113.8,1024.8,1114.2,1025.8,1114L1025.8,1114z"/>
		</g>
	</g>
	<g class="st2">
		<g class="st6">
			<path d="M1025,1123.6c2.3,0,4.6,0,7,0c1,0,1.9-0.9,1.9-1.9c0-1-0.8-1.9-1.9-1.9c-2.3,0-4.6,0-7,0c-1,0-1.9,0.9-1.9,1.9
				S1023.9,1123.6,1025,1123.6L1025,1123.6z"/>
		</g>
	</g>
	<g class="st2">
		<path class="st6" d="M2028.4,1007.8v-28.2c0-12.8-10.4-23.2-23.2-23.2h-246.8c-12.8,0-23.2,10.4-23.2,23.2V1478h638.3v-470.2
			H2028.4z"/>
		<path class="st17" d="M2030.5,1007.8v-28.2c0-12.8-10.4-23.2-23.2-23.2h-246.8c-12.8,0-23.2,10.4-23.2,23.2V1478h638.3v-470.2
			H2030.5z"/>
		<polygon class="st19" points="1758.7,1027.3 1758.7,1478 2350,1478 2350,1025.1 		"/>
		<polygon class="st6" points="1791.2,1027.3 1791.2,1478 2382.5,1478 2382.5,1025.1 		"/>
		<path class="st6" d="M2406.3,1007.8h-584.2c-12,0-20.8,8.1-22.5,19.3V1478h637.6l0-439.4
			C2437.3,1022.4,2422.7,1007.8,2406.3,1007.8z"/>
		<g class="st6">
			<g>
				
					<rect x="1957.7" y="923.9" transform="matrix(1 -2.800512e-03 2.800512e-03 1 -2.9653 5.9952)" class="st20" width="363.1" height="275.9"/>
				<rect x="1966.8" y="932.9" transform="matrix(1 -2.800528e-03 2.800528e-03 1 -2.9593 5.9947)" width="344.5" height="253.7"/>
				<polygon class="st21" points="1996.2,1166.6 2217.6,1166 2096.5,1049.8 				"/>
				<polygon class="st21" points="2096.9,1166.3 2282.9,1165.8 2181.9,1069.8 				"/>
				
					<ellipse transform="matrix(0.4134 -0.9106 0.9106 0.4134 338.045 2572.7043)" class="st21" cx="2165.7" cy="1024" rx="25.6" ry="25.6"/>
			</g>
		</g>
		<g class="st6">
			<g>
				
					<rect x="2031.2" y="890.7" transform="matrix(1 -3.204544e-03 3.204544e-03 1 -3.3122 7.0537)" class="st20" width="336.6" height="292.7"/>
				
					<rect x="2040.5" y="900.3" transform="matrix(1 -3.223776e-03 3.223776e-03 1 -3.3247 7.0954)" class="st22" width="317.5" height="269.1"/>
			</g>
			<g>
				<rect x="2071.3" y="938" class="st1" width="126.4" height="11.1"/>
				<rect x="2071.3" y="968" class="st1" width="257.2" height="11.1"/>
				<rect x="2071.3" y="998.5" class="st1" width="257.2" height="11.1"/>
			</g>
		</g>
		<path class="st17" d="M2409.2,1010.3H1825c-12,0-20.8,8.1-22.5,19.3v450.9h626c6.4,0,11.6-5.2,11.6-11.6l0-427.9
			C2440.2,1024.9,2425.5,1010.3,2409.2,1010.3z"/>
		<rect x="1735.3" y="1475.4" class="st23" width="64.3" height="2.6"/>
		<polygon class="st24" points="1735.3,1198.5 1758.7,1213.8 1790.9,1213.8 1799.6,1219.9 1799.6,1214.2 2437.2,1214.2 
			2437.2,1198.5 		"/>
		<g class="st6">
			<g>
				<rect x="1726.2" y="1123.7" class="st25" width="724" height="81.8"/>
				<rect x="1791.4" y="1123.7" class="st26" width="658.8" height="81.8"/>
			</g>
		</g>
	</g>
	<g>
		<g class="st2">
			<g class="st6">
				<path class="st27" d="M2187.7,33.9l-22.3-2.5l-13.2,119.8l22.3,2.5c7.3,0.8,14.6-5,20.6-15.6c6.1-10.3,10.6-24.9,12.4-41.5
					C2211.2,63.6,2202.3,35.5,2187.7,33.9z M2179,93.4c1.1-10,5.2-17.8,9.6-18.7c4,1.8,6.4,10.3,5.3,20.3
					c-1.1,10.3-5.3,18.1-9.6,18.9C2180.2,112.2,2177.9,103.6,2179,93.4z"/>
				<g>
					<path class="st28" d="M2175.1,32.5l-9.7-1.1l-13.2,119.8l9.7,1.1c7.6,0.8,15.3-5,21.5-15.5c6.3-10.2,11-24.9,12.8-41.5
						C2199.8,62.4,2190.4,34.2,2175.1,32.5z M2172.7,112.7c-4.2-1.8-6.7-10.3-5.6-20.6c1.1-10,5.4-17.8,9.9-18.6
						c4.2,1.8,9.6,10.7,8.5,20.7C2184.4,104.4,2177.2,111.8,2172.7,112.7z"/>
				</g>
			</g>
			<g class="st6">
				<path class="st27" d="M2177,32.7l-22.3-2.5L2141.6,150l22.3,2.5c7.3,0.8,14.6-5,20.6-15.6c6.1-10.3,10.6-24.9,12.4-41.5
					C2200.5,62.4,2191.6,34.3,2177,32.7z M2168.3,92.2c1.1-10,5.2-17.8,9.6-18.7c4,1.8,6.4,10.3,5.3,20.3
					c-1.1,10.3-5.3,18.1-9.6,18.9C2169.6,111,2167.2,102.5,2168.3,92.2z"/>
				<g>
					<path class="st29" d="M2164.4,31.3l-9.7-1.1L2141.6,150l9.7,1.1c7.6,0.8,15.3-5,21.5-15.5c6.3-10.2,11-24.9,12.8-41.5
						C2189.1,61.2,2179.7,33,2164.4,31.3z M2164.9,111.8c-4.2-1.8-6.7-10.3-5.6-20.6c1.1-10,5.4-17.8,9.9-18.6
						c4.2,1.8,6.7,10.3,5.6,20.3C2173.7,103.2,2169.4,111,2164.9,111.8z"/>
				</g>
				<path class="st30" d="M2163.8,153.2c-0.1,0-0.1,0-0.1,0c-0.4-0.1-0.7-0.5-0.7-0.9c0.1-0.4,0.5-0.7,0.9-0.7c0,0,5.5,0.7,11.8-4.2
					c6.9-5.4,15.9-18.3,19.4-49.5c6.3-56.9-18-64.5-18.3-64.6c-0.4-0.1-0.7-0.6-0.5-1c0.1-0.4,0.6-0.7,1-0.5
					c0.3,0.1,6.7,2,12.3,11.3c5.1,8.4,10.5,24.8,7.1,55c-3.5,31.8-12.8,45.1-20,50.6C2170.2,153.7,2164.8,153.3,2163.8,153.2z"/>
			</g>
		</g>
		<g>
			<path class="st25" d="M2165.2,109.1c-1.1,0.1-1.9,0.3-3,0.5c0.2,0.3,0.2,0.3,0,0.3c-43.8,8-79.4,43.5-84.5,90.1l-11,100.1
				l-33.7-3.7l11-100.1c7.1-64.8,58.6-114,121-121c1.4-0.4,2.7-0.5,4.1-0.6C2179,73.6,2175.9,108.7,2165.2,109.1z"/>
			<path class="st25" d="M2209.1,77.2c0,0-23.6-4.1-40.1-2.6c-16.5,1.5-26.7,37.1-5.5,34.5c21.1-2.6,41.9,1.6,41.9,1.6
				c42.8,10.4,74.3,46.5,79,89.6c0.2,1.1,0.3,1.9,0.2,2.7c0.3,2.4,0.3,4.6,0.3,7c0.1,4.3-0.1,8.5-0.6,12.7l-11,100.1l33.4,3.7
				l11-100.1C2325.6,155.6,2277.6,91.7,2209.1,77.2z"/>
			<path class="st31" d="M2167.1,99.3c-80.5,5.2-100.2,90.1-100.2,90.1l-12,109.3l11.9,1.3l11-100.1c5.2-47.6,42.2-83.7,87.4-90.8
				c3.5-0.7,6.6-10.3,6.6-10.3S2169.7,99.1,2167.1,99.3z"/>
			<path class="st31" d="M2206.9,103.8c0,0-12.5-4.3-35.1-4.9c-24.3-0.7-7.4,9.9-7.4,9.9l21.4-0.4c10.7,0.7,20.3,2.5,20.3,2.5
				c42.4,10.3,73.7,46.3,78.3,89.4C2285.3,175.6,2271,119.7,2206.9,103.8z"/>
		</g>
		<g>
			
				<rect x="2021.5" y="253.9" transform="matrix(0.1095 -0.994 0.994 0.1095 1503.4352 2519.7581)" class="st9" width="273" height="333.9"/>
			<path class="st5" d="M2285.1,572.1l-284.2-31.3c-13.2-1.5-22.7-13.3-21.2-26.5l24.6-223.6c1.5-13.2,13.3-22.7,26.5-21.2
				l284.2,31.3c13.2,1.5,22.7,13.3,21.2,26.5l-24.6,223.6C2310.2,564.1,2298.3,573.6,2285.1,572.1z"/>
			<g>
				<path class="st32" d="M2118.1,388.4c-1.8,16.7,6.6,32.5,20.1,40.4l-7.7,69.9c-0.9,8.2,4.1,15.8,11.6,18.2l0.8,0.1
					c0.8,0.4,1.8,0.5,2.6,0.6c9.2,1,17.7-5.9,18.7-15.2l7.7-69.9c14.9-5.1,26.5-18.3,28.4-35.1c2.5-22.9-13.9-43.2-36.5-45.7
					c-1.1-0.1-2.1-0.2-3.2-0.1C2139,350.9,2120.5,366.6,2118.1,388.4z"/>
				<path d="M2118.1,388.4c-1.8,16.7,6.6,32.5,20.1,40.4l-7.7,69.9c-0.9,8.2,4.1,15.8,11.6,18.2l0.8,0.1c7.8-0.8,14.4-7,15.3-15.3
					l7.7-69.9c14.9-5.1,26.5-18.3,28.4-35.1c2.4-21.8-12.5-41.5-33.7-45.1C2139,350.9,2120.5,366.6,2118.1,388.4z"/>
			</g>
			<path class="st33" d="M2203.7,563.2l105.3,11.6l29.9-271.3l-29.2-3.2C2309.7,300.2,2295.4,501.3,2203.7,563.2z"/>
			<path class="st34" d="M2048.3,546.1c-19.2-56.6,1.4-200.8,9.4-273.6l-33.4-3.7l-29.9,271.3L2048.3,546.1z"/>
		</g>
	</g>
	<g class="st2">
		<path class="st35" d="M1834.6,1195.1c-5.8-0.6-12.1,0-18.3,1.7c0-10.4,0.3-20.8,0.9-31.2c0.3-6.9,2.9-13.2,10.9-14.6
			c4.8-0.8,8.5,0.8,10,4.8C1841.7,1165.4,1837.2,1184,1834.6,1195.1z"/>
		<path class="st6" d="M1858.9,1112.6c-0.7,6.6,0.4,14.1,0.7,20.9c0.3,7.7-3.3,13.6-4.2,21c-0.8,6.8-0.9,14.2-0.7,21.3
			c0,0.3-0.2,0.6-0.5,0.6h-44.9c-0.3,0-0.5-0.2-0.5-0.5c-0.5-4.6-0.9-8.7-0.9-8.7c-0.7-6.6-0.8-12,1-18.3c0.8-2.6,1.4-5.4,1.9-8.2
			c0.8-4.4,1.4-8.9,1.8-13.2c0.6-6.6,0.6-13.3,1.2-19.9c0.6-6.5,1.7-12.9,2.8-19.3c3.3-19.4,6.7-38.7,11.3-57.8
			c2.3-9.6,5-19.1,8.1-28.5c3.7-11.1,8.4-21.8,14.3-32c3.6-6.1,7.9-12.8,15-15c5.6-1.8,12-2.6,17.6-0.2c7.6,3.2,13.4,9.4,19.7,14.5
			c0.9,4.2,1.7,8.3,2.6,12.5c2,9.9-0.6,21.3-5.4,30c-1.8,3.3-3.9,6.3-5.4,9.7c-2.1,5.1-2.6,10.7-4.2,16c-1.6,5.2-4.4,10-7,14.7
			C1873.2,1070.4,1861.1,1091.8,1858.9,1112.6z"/>
		<path class="st35" d="M1767.3,949.5c-2.3,3.8-3.3,9.3-7.1,12c-3.8,2.7-10.4,1.9-14.9,2.3c-3.2,0.3-5.2,1.3-6.1,1.8
			c-2.1,1.3-1.2,4.3,0.8,5.2c2.2,1,5.1,0.9,7.5,1.1c5.7,0.6,11.4,1.1,17.1,1.7c1.2,0.1,2.4,0.2,3.5,0c3.2-0.6,5.3-3.7,6.7-6.7
			c10.2-21.1,35.6-28.9,49.4-47.3c3.5-4.7,6.4-9.9,9.3-15c4.2-7.5,8.3-15,12.6-22.4c3.1-5.3,8-9.4,6.4-16.2
			c-1.2-5.2-6.6-9.1-11.9-8.9c-8.6,0.3-14.1,8-18.7,14.1c-6.4,8.5-12,16.4-14.9,26.9c-0.7,2.8-1.3,5.7-3.1,8c-2,2.5-5.1,3.8-7.9,5.5
			c-9.2,5.8-13.8,16.1-19.3,24.9c-2.8,4.5-6.6,8.2-9.4,12.6C1767.4,949.3,1767.4,949.4,1767.3,949.5z"/>
		<path class="st35" d="M1916.1,1204.9c-6-0.6-12.1,0-17.9,1.6c-2.7-9.9-5.1-19.9-7.3-30c-1.5-6.6-0.5-12.7,7-14
			c4.6-0.8,8.7,0.8,11.3,4.6C1915.3,1176.4,1915.7,1194.3,1916.1,1204.9z"/>
		<path class="st6" d="M1868,1217.4c4.2,2.7,9.5,3,14.3,2.9c0.5,0,1,0,1.5,0c7.7,0,15.3-0.3,22.9-0.8c3.1-0.2,6.7-0.5,9.3-2.4
			c3.1-2.2,2.6-6,1.9-9.3c-0.6-2.9-1-5.8-1.2-8.7c-3.6,1.1-7.6,2.3-11.3,1.9c-2.1-0.2-4.1-0.7-6.1-1.6c-0.9-0.4-1.9-0.9-2.7-1.6
			c-0.5-0.3-1.7-1.8-2.3-1.7c-0.5,0.1-0.8,1.5-1.1,1.8c-0.6,0.9-1.3,1.7-2.1,2.5c-1.5,1.4-3.3,2.6-5.3,3.3c-1.8,0.6-3.7,0.9-5.6,1.3
			c-2.7,0.5-5.3,1.1-8,1.7c-1.6,0.4-3.3,0.9-4.7,1.8c-1.4,0.9-2.5,2.4-2.6,4.1c-0.1,1.9,1.1,3.6,2.6,4.7
			C1867.7,1217.2,1867.9,1217.3,1868,1217.4z"/>
		<path class="st6" d="M1788.7,1205.8c0.5,2.2,3,3.8,5.4,4.4c10.3,3,21.3,0.1,32,1c2.6,0.2,5.3,0.7,7.9,0c5.9-1.5,5.7-8.7,4.3-13.4
			c-0.6-2.2-1.7-4.4-1.1-6.6c-4.7,1-9.6,1.1-14.4,0.4c-1.8-0.3-3.6-0.7-5.1-1.8c-0.6-0.5-1.4-1.1-2.1-0.8c-0.5,0.2-0.8,0.7-1.1,1.1
			c-2.2,3.7-5.4,5-9,6.9c-1.5,0.8-2.7,1.6-4.5,2.1c-2.1,0.6-4.3,1-6.4,1.4c-2.4,0.5-5.3,1.5-5.9,3.9
			C1788.6,1204.9,1788.6,1205.4,1788.7,1205.8z"/>
		<path class="st6" d="M1862.4,1047.9c1.1-10.9,1.5-21.9,2-33c0.5-10.6,1.9-20.9,3.5-31.4c0.6-3.9,0.1-7.3,1.4-11.1
			c1.6-4.9,3.5-9.7,6.2-14.1c3.9-6.4,9.5-12,16.6-14.6c4.8-1.7,10.2-1.7,14.6,0.9c4.3,2.6,6.7,6.9,8.9,11.3c1.3,2.6,2.6,5.3,3.9,7.9
			c2.8,5.8,5.7,11.6,7.4,17.8c1.7,6.2,2.3,12.9,0.5,19c-1.2,3.9-3.4,6.1-5.3,9.6c-2.3,4.2-4.6,40-6.7,47.5c-0.8,3-1.6,14.2-1.4,16.7
			c0.4,6.9-0.9,13.7-1.3,20.6c-0.4,7.1,1,12.7,3.7,19.2c1.7,4.1,2.6,8.6,2.6,13c0,6.8-1.1,13.7,0.9,20.4c0.6,2,1.5,3.9,2.3,5.9
			c3.4,8.3,4.8,17.4,6.1,26.3c0.1,0.5-0.3,0.9-0.7,1c-3.1,0.4-13.8,2.5-14.7,2.6c-9.7,1.1-18.7-2.2-28.1,0c-0.4,0.1-0.9-0.1-1-0.5
			c-7.3-20.2-12.9-40.7-16.8-61.8c-1.1-6.1-0.3-11.8-0.6-17.8c-0.1-2.2-0.8-5.7-1.4-7.8c-3.5-11.9-6.2-23.2-4.2-35.7
			C1861.5,1055.9,1862,1051.9,1862.4,1047.9z"/>
		<path class="st17" d="M1847.6,844.8c4.5-4,10.1-6.7,15.9-7.8c2.1-0.4,4.3-0.6,6.3,0.1c1.4,0.4,2.6,1.2,3.8,2
			c8.8,5.6,16.2,13,20.6,22.5c3.6,7.8,5.5,16.3,7,24.8c0.9,5,9.9,65.3,12.8,64.5c-3.5,1-7.1,1.8-10.5,3.1c-4.9,1.9-9.9,3.8-14.7,5.9
			c-9.7,4.1-19.1,8.5-29.4,11c-1.3-1-2.4-2.3-3.3-4.1c-2.4-5.2-4.2-11.2-5.1-16.8c-3.2-20.9-4.8-43.3-10.2-63.7
			c-2.5-9.3-4.2-19.7-1.4-29.2C1841,852.3,1843.9,848.1,1847.6,844.8z"/>
		<path class="st36" d="M1854.3,959c-2.6,1.2-5.3,2.3-7.9,3.5c-12.3,5.7-24,12.8-34.7,21.1c3.1,3,6,6.7,6.2,11
			c0.3,4.3-3.1,9-7.4,8.8c-2.5-2.8-2.8-6.9-4.6-10.1c-2.3-4.3-9.4-4.1-10.9-7.3c-1.7-3.4,2.1-7.9,4-10.3
			c5.4-6.9,13.7-10.9,19.1-17.6c1.9-2.4,3.3-5.2,5-7.8c2.8-4.1,6.4-7.7,10.6-10.3c8.2-5.2,11.2-12.5,15.2-21.1
			c1.2-2.7,2.5-5.3,3.2-8.2c0.9-3.7,0.9-7.5,1.5-11.2c0.8-5.3,2.9-10.4,5.2-15.2c2.1-4.4,4.5-8.8,8.1-12.1c3.6-3.3,8.5-5.5,13.3-4.7
			c6,1,10.5,6.4,12.2,12.2c1.7,5.8,1.2,12,0.5,18c-0.7,5.8-1.5,11.7-4.3,16.9c-2.6,4.9-6.4,9.2-9.2,14c-2.6,4.6-4.1,9.6-6.4,14.5
			C1868.9,951.6,1862,955.5,1854.3,959z"/>
		<path class="st17" d="M1857.9,841.6c1.3,1.6,2.2,3.6,2.7,5.5c2.8,10.4-1.2,23.3-5.6,32.7c-1.6,3.5-2.3,9.3-6.1,11.2
			c-2.6,1.2-4.6-0.7-6.7-1.8c-2.6-1.3-5.4-2.4-8-3.8c-5.9-3-11.6-6.3-17.3-9.8c3.1-14.2,9.9-28.8,22.6-35.9c4.1-2.3,9-3.7,13.4-2
			C1854.9,838.5,1856.5,839.9,1857.9,841.6z"/>
		<path class="st35" d="M1873.4,831.6c-1.2-3.7-2.1-7.5-2.5-11.7c-0.4-4.6-0.4-9.4-2.1-13.7c-2.6-6.7-12-11-18.8-9.4
			c-9.6,2.3-6.7,18.5-5.8,25.7c0.4,3.5,3.1,6,5,8.9c3.1,4.9,3.6,12.9,4,18.6c0.1,0.7,0.1,1.3,0.5,1.9c0.5,0.6,1.3,0.8,2,1
			c3.9,0.9,7.8,1.7,11.8,1.6c5.2-0.1,13.5-1.9,11-8.7C1876.8,840.9,1874.9,836.3,1873.4,831.6z"/>
		<path class="st6" d="M1841.9,786.4c-0.8,0.5-1.5,1.1-2,1.9c-0.4,0.7-0.6,1.6-0.7,2.4c-0.3,3.4,1.5,6.6,3.8,9
			c2.1,2.2,6.1,2.6,8.9,3c2.7,0.4,5.4,1,7.6,2.6c2.2,1.7,3.5,4.3,4.5,6.9c0.8,2.1,1.5,4.2,2.7,6c1.4,2.3,4.9,4,5.9,0.4
			c0.3-0.9,0.1-1.7,0.2-2.6c0-1,0.4-2.1,0.7-3.1c0.5-2.3,1-4.6,1.3-6.9c0.2-1,0.3-2,0.2-3c-0.2-1.3-0.7-2.4-1.4-3.5
			c-3-4.9-8.2-8.4-13.8-9.3c-0.6-0.1-1.2-0.2-1.8-0.4c-1.2-0.5-2-1.5-2.9-2.3c-2.2-2-5.1-2.9-8-2.7
			C1845.2,785,1843.4,785.5,1841.9,786.4z"/>
		<path class="st23" d="M1860.9,811.3c1.1-2.1,3.5-2.9,5.6-1.8c2.4,1.2,3.7,4.6,3.2,7.1c-0.4,2.3-2.8,3.9-4.8,2.6
			c-0.9-0.3-1.8-0.8-2.5-1.5C1860.7,816.1,1859.8,813.5,1860.9,811.3z"/>
		<path class="st6" d="M1864.7,813.9c0.3-1.2,1.9-0.6,1.7,0.5c-0.1,0.9-0.1,1.7-0.7,2.4c-0.4,0.4-1,0.1-1.2-0.3
			C1864.2,815.7,1864.5,814.8,1864.7,813.9z"/>
		<path class="st6" d="M1865.3,942.3c0.3,0.7,0.3,1.5,0.1,2.2c-0.4,1.2-1.3,2.1-2.5,2.6c-0.3,0.1-0.5,0.2-0.8,0.2
			c-0.7,0.1-1.3-0.3-1.9-0.6"/>
		<path class="st37" d="M1851.9,896.1c-3.7,3.5-9.4,6.2-13.6,9c-3.7-3.3-8.1-5.8-12.9-7.2c-2.7-0.8-5.4-1.2-8-2.2
			c-11.8-4.3-20.9-13.2-33.1-17.2c-6.1-2-12.9-3.4-17.1-8.3c-5.1-6-6.1-14.9-9.9-21.7c-1.5-2.7-3.8-4.9-6.9-2
			c-2.4,2.2-1.6,6.6-1.1,9.4c0.8,4.3,1.7,8.5,2.6,12.8c1.3,6.2,2,8.4,7.6,11.4c5.6,3,11.1,6.8,15.5,11.5c2.8,3,5.1,6.4,7.8,9.5
			c9.5,10.9,23.4,17.1,33.9,27c5.1,4.8,10.5,11.3,18.2,9.2c2.5-0.7,45.1-19.9,44.1-21.6c-3.6-6.3-10.1-8.6-17.5-11.9
			C1857.6,902,1853.3,900.2,1851.9,896.1z"/>
		<path class="st17" d="M1898.1,880.9c0.4,1.9,0.5,3.9,0.4,6.1c-0.4,8.3-13.5,27.8-19.9,30.8c-4.5-4.3-3.5-6.7-8.7-8.5
			c-6.3-2.2-14.4-6.2-18-10.3c-1.2-1.4-1.2-3.2,0.1-4.6c0.5-0.5,2.2-1.5,2.2-2.1c1.3-11.9,10-33.6,25.3-30.9
			c4.6,0.8,8.5,3.9,11.8,7.3C1894.9,872.5,1897.2,876.3,1898.1,880.9z"/>
		<path class="st23" d="M1867.5,864.8c0.4-0.3,0.8,0.3,0.5,0.6c-3.5,3.9-6.6,7.8-8.9,12.6c-2.5,5.3-3.7,10.9-5.8,16.3
			c-0.2,0.4-0.8,0.3-0.7-0.2C1854.4,883.8,1858.8,871.3,1867.5,864.8z"/>
		<path class="st6" d="M1856.8,826.9c-0.2,0.4-0.6,1.2-0.7,1.3c-0.4,0.8-0.7,1.7-1,2.5c-1.3,3.5-2.6,7-2.6,10.7c0-2.6-1.4-4.7-2.2-7
			c-0.9-2.4-2.3-4.6-3.7-6.7c-0.6-1-1.1-2.8,0.5-1.6c0.9,0.7,2,1.1,3.1,1.2c2.3,0.3,4.6-0.2,6.8-0.7
			C1856.9,826.7,1856.9,826.8,1856.8,826.9z"/>
		<path class="st6" d="M1852.9,816.9c0.1,0.4-0.1,0.8-0.3,1.1c-0.4,0.7-0.9,1.3-1.6,1.6c-0.7,0.4-1.5,0.5-2.3,0.3
			c-1-0.3-1.6-1.2-2-2.2c-0.1-0.2-0.1-0.5,0.1-0.6"/>
	</g>
	<g>
		<path class="st38" d="M2017.6,1464.8c-11-1.1-22.8,0-34.5,3.1c0.1-19.6,0.6-39.2,1.6-59c0.7-13,5.5-25,20.5-27.5
			c9.1-1.5,16.1,1.5,18.9,9.1C2030.9,1408.7,2022.4,1443.9,2017.6,1464.8z"/>
		<path d="M2063.4,1280.7c-1.3,15.1,0.8,32.3,1.3,47.7c0.5,17.7-6.3,31.1-7.9,48c-1.5,15.6-1.6,32.5-1.4,48.8c0,0.7-0.5,1.3-1,1.3
			h-84.9c-0.5,0-1-0.5-1-1.1c-0.9-10.6-1.6-19.8-1.6-19.8c-1.2-15.1-1.5-27.4,1.9-41.8c1.5-6,2.7-12.3,3.6-18.7
			c1.5-10,2.6-20.3,3.4-30.1c1.2-15.1,1.2-30.4,2.3-45.6c1-14.8,3.1-29.4,5.2-44c6.3-44.3,12.7-88.6,21.4-132.3
			c4.4-22,9.4-43.8,15.4-65.2c7-25.4,15.8-50,27.1-73.2c6.8-14,14.9-29.3,28.4-34.4c10.7-4.1,22.7-5.9,33.3-0.5
			c14.3,7.3,25.4,21.5,37.2,33.2c1.6,9.5,3.2,19.1,4.8,28.6c3.8,22.6-1.2,48.6-10.2,68.6c-3.4,7.4-7.4,14.4-10.1,22.3
			c-4,11.7-4.8,24.6-7.9,36.7c-3.1,11.9-8.3,22.8-13.3,33.7C2090.4,1184,2067.6,1233.1,2063.4,1280.7z"/>
		<path class="st38" d="M2171.4,1483.3c-11.3-1-22.8,0-33.7,3c-5-18.8-9.7-37.6-13.9-56.6c-2.8-12.5-1-24,13.3-26.4
			c8.7-1.5,16.5,1.5,21.3,8.7C2170,1429.5,2170.7,1463.3,2171.4,1483.3z"/>
		<path d="M2080.6,1506.9c8,5.2,17.9,5.7,27.1,5.4c0.9,0,1.9,0,2.8,0c14.5,0,28.9-0.5,43.3-1.6c5.9-0.4,12.6-1,17.6-4.6
			c5.8-4.2,5-11.3,3.5-17.6c-1.2-5.4-2-10.9-2.2-16.4c-6.7,2.1-14.3,4.3-21.4,3.5c-3.9-0.4-7.8-1.4-11.4-3c-1.8-0.8-3.5-1.8-5.1-2.9
			c-0.9-0.6-3.3-3.5-4.3-3.3c-0.9,0.2-1.6,2.7-2,3.5c-1.1,1.7-2.5,3.3-4,4.7c-2.9,2.7-6.3,4.8-10,6.2c-3.4,1.2-7,1.8-10.6,2.4
			c-5.1,0.9-10.1,2-15.1,3.3c-3.1,0.8-6.2,1.6-8.9,3.4c-2.7,1.8-4.8,4.6-5,7.8c-0.2,3.5,2.1,6.8,5,8.8
			C2080.1,1506.6,2080.3,1506.8,2080.6,1506.9z"/>
		<path d="M1930.9,1485c0.9,4.1,5.7,7.1,10.1,8.4c19.4,5.7,40.2,0.2,60.4,1.9c5,0.4,10,1.2,14.9,0c11.1-2.8,10.8-16.5,8.1-25.4
			c-1.2-4.1-3.2-8.3-2.1-12.4c-8.9,1.9-18.2,2.1-27.2,0.7c-3.4-0.5-6.8-1.3-9.6-3.3c-1.2-0.9-2.6-2-4-1.5c-0.9,0.3-1.5,1.2-2,2.1
			c-4.2,6.9-10.2,9.5-17,13c-2.9,1.5-5.2,3-8.5,3.9c-4,1.1-8.1,1.9-12.1,2.7c-4.6,1-10.1,2.8-11.1,7.4
			C1930.7,1483.3,1930.7,1484.2,1930.9,1485z"/>
		<path d="M2070.1,1132.5c2.1-25,2.8-50.2,3.8-75.5c1-24.2,3.6-47.9,6.7-71.8c1.2-8.8,0.2-16.6,2.6-25.3c3-11.2,6.7-22.2,11.7-32.2
			c7.3-14.7,18-27.5,31.4-33.3c9.1-3.9,19.3-3.9,27.6,2.1c8.2,5.9,12.6,15.7,16.7,25.8c2.5,6,4.9,12.1,7.4,18.1
			c5.4,13.2,10.8,26.5,14,40.6c3.3,14.2,4.3,29.4,0.9,43.5c-2.2,9-6.4,14-9.9,21.8c-4.4,9.7-8.8,91.5-12.7,108.8
			c-1.5,6.9-3,32.5-2.7,38.3c0.8,15.8-1.7,31.4-2.4,47.2c-0.7,16.2,2,29.1,7,43.9c3.2,9.4,4.9,19.6,4.9,29.8
			c0.1,15.6-2.1,31.4,1.8,46.6c1.2,4.6,2.9,9,4.4,13.4c6.4,19.1,9.1,39.7,11.5,60.1c0.1,1.1-0.5,2.1-1.4,2.2c-5.9,0.9-26,5.8-27.8,6
			c-18.4,2.6-35.3-5-53.1,0.1c-0.8,0.2-1.6-0.3-1.9-1.2c-13.8-46.3-24.3-93.1-31.7-141.5c-2.1-13.9-0.6-27.1-1.1-40.8
			c-0.2-5-1.5-12.9-2.6-17.7c-6.5-27.3-11.7-53.1-7.9-81.6C2068.4,1150.9,2069.3,1141.7,2070.1,1132.5z"/>
		<path class="st39" d="M1885.1,1051.8c-4.2,1.9-8.5,3.7-12.9,5.7c-20,9.2-38.9,20.7-56.2,34.2c5.1,4.8,9.7,10.8,10.1,17.8
			c0.4,7-5,14.6-11.9,14.2c-4-4.5-4.6-11.1-7.5-16.4c-3.8-6.9-15.2-6.7-17.7-11.9c-2.7-5.5,3.4-12.8,6.5-16.7
			c8.7-11.1,22.2-17.6,30.9-28.5c3.1-3.9,5.4-8.4,8.1-12.6c4.5-6.7,10.4-12.4,17.2-16.7c13.3-8.4,18.1-20.3,24.6-34.2
			c2-4.3,4-8.6,5.2-13.2c1.5-5.9,1.4-12.1,2.4-18.1c1.3-8.6,4.6-16.8,8.4-24.7c3.4-7.1,7.3-14.2,13.1-19.6
			c5.8-5.4,13.8-8.9,21.6-7.5c9.7,1.6,17,10.3,19.8,19.7c2.8,9.4,1.9,19.5,0.8,29.2c-1.1,9.4-2.5,19-6.9,27.3
			c-4.2,8-10.4,14.8-14.9,22.7c-4.3,7.5-6.6,15.6-10.3,23.4C1908.7,1039.8,1897.5,1046.2,1885.1,1051.8z"/>
		<path class="st38" d="M2143.8,719.4c-2.2-7-3.9-14.2-4.6-22.1c-0.8-8.7-0.8-17.8-4-25.9c-4.9-12.6-22.6-20.8-35.6-17.7
			c-18.2,4.4-12.7,35-11,48.6c0.8,6.7,5.8,11.4,9.4,16.9c5.9,9.2,6.7,24.3,7.6,35.1c0.1,1.2,0.2,2.5,1,3.5c0.9,1.1,2.4,1.5,3.8,1.8
			c7.3,1.6,14.8,3.2,22.3,3.1c9.9-0.2,25.5-3.6,20.9-16.4C2150.2,737,2146.6,728.4,2143.8,719.4z"/>
		<path d="M2084.3,634.1c-1.5,1-2.9,2.1-3.8,3.7c-0.8,1.4-1.1,2.9-1.3,4.5c-0.5,6.4,2.8,12.5,7.1,17c3.9,4.2,11.5,4.9,16.8,5.7
			c5,0.8,10.2,1.8,14.3,4.9c4.2,3.2,6.6,8.2,8.6,13.1c1.5,3.9,2.9,7.9,5,11.4c2.7,4.4,9.2,7.5,11.2,0.8c0.5-1.7,0.3-3.2,0.3-4.9
			c0.1-2,0.8-4,1.3-5.9c1-4.3,1.8-8.7,2.5-13.1c0.3-1.9,0.6-3.8,0.3-5.7c-0.3-2.4-1.4-4.6-2.6-6.7c-5.7-9.2-15.4-15.8-26.1-17.5
			c-1.2-0.2-2.4-0.3-3.4-0.8c-2.2-0.9-3.7-2.8-5.5-4.4c-4.1-3.7-9.7-5.5-15.2-5.1C2090.4,631.3,2087.1,632.3,2084.3,634.1z"/>
		<path class="st1" d="M2120.1,681c2-3.9,6.6-5.4,10.6-3.4c4.5,2.3,6.9,8.7,6,13.5c-0.8,4.3-5.2,7.3-9.1,4.9
			c-1.8-0.5-3.5-1.5-4.7-2.8C2119.8,690.1,2118,685.2,2120.1,681z"/>
		<path d="M2127.3,686c0.5-2.2,3.6-1.2,3.3,0.9c-0.2,1.8-0.2,3.3-1.4,4.6c-0.7,0.8-1.9,0.3-2.3-0.6
			C2126.3,689.3,2127,687.7,2127.3,686z"/>
		<path class="st1" d="M2073.9,765.9c0.7-0.5,1.5,0.6,0.9,1.2c-6.7,7.3-12.5,14.8-16.8,23.8c-4.7,10-7,20.6-11,30.8
			c-0.3,0.8-1.5,0.5-1.4-0.4C2049,801.9,2057.4,778.2,2073.9,765.9z"/>
		<path d="M2112.4,710.5c-0.4,0.7-1.1,2.2-1.3,2.5c-0.7,1.6-1.4,3.2-2,4.8c-2.5,6.5-5,13.3-4.9,20.3c-0.1-4.9-2.6-8.8-4.2-13.3
			c-1.6-4.6-4.4-8.6-6.9-12.7c-1.2-1.8-2-5.3,1-3c1.7,1.3,3.7,2,5.8,2.3c4.3,0.6,8.7-0.5,12.8-1.3
			C2112.6,710.1,2112.5,710.3,2112.4,710.5z"/>
		<path d="M2103.7,693.9c0.2,0.7-0.1,1.4-0.5,2.1c-0.8,1.3-1.8,2.4-3.1,3.1c-1.3,0.7-2.9,0.9-4.3,0.5c-1.8-0.6-3-2.3-3.8-4.1
			c-0.1-0.4-0.2-0.9,0.1-1"/>
		<g>
			<g class="st2">
				
					<rect x="1617.4" y="654.3" transform="matrix(0.9837 0.1796 -0.1796 0.9837 154.08 -332.711)" class="st6" width="593.7" height="60.3"/>
				
					<rect x="1622.7" y="653.7" transform="matrix(0.9837 0.1796 -0.1796 0.9837 148.9898 -334.1244)" class="st6" width="593.7" height="4"/>
				<path class="st6" d="M2333.6,600.1c-85.9-15.7-168.4,41.4-184.2,127.4c-15.6,85.9,41.5,168.4,127.4,184.2
					c85.9,15.6,168.4-41.5,184.2-127.4C2476.7,698.4,2419.4,615.9,2333.6,600.1z M2405.2,769.1c-0.1,1.6-0.4,3.3-0.7,4.9
					c-9.9,54.8-62.7,91.3-117.5,81.3c-43.8-8-76-43.2-81.9-85.1c-1.6-10.4-1.4-21.5,0.6-32.5c10-54.8,62.7-91.3,117.5-81.3
					c53.1,9.7,88.9,59.2,82.1,112C2405.4,768.7,2405.4,768.8,2405.2,769.1z"/>
				
					<rect x="1654.3" y="633.8" transform="matrix(0.9837 0.1796 -0.1796 0.9837 151.6962 -290.8854)" class="st6" width="55.7" height="116.9"/>
				
					<rect x="1761.2" y="662.4" transform="matrix(0.9837 0.1796 -0.1796 0.9837 156.0253 -309.8584)" class="st6" width="55.7" height="88.6"/>
				<path class="st6" d="M2405.4,768.4c6.7-52.8-29-102.3-82.1-112c-54.8-10-107.5,26.5-117.5,81.3c-2,11-2.1,22-0.6,32.5
					c-1.7-7.2-2.6-14.6-2.6-22.3c0-56.5,45.8-102.5,102.5-102.5c56.5,0,102.5,45.9,102.5,102.5
					C2407.5,754.8,2406.8,761.8,2405.4,768.4z"/>
				<path d="M2310.9,597c-118.3-4.8-157.3,102.3-157.7,103.5l5.7,0.9c1.7-4.7,37.9-104.1,152-98.8V597z"/>
			</g>
		</g>
		<path class="st40" d="M2025.9,681.6l0.1-132c3-1.6,8.8-6.1,10.8-18.5c1.2-7.3,1.9-10.7,2.4-12.2c0.2,0,0.4,0,0.5,0.1l0.4-1.6
			c-6.9-1.6-12.2,3.6-15,14.7c-17.8-0.6-24.5,9.9-24.8,10.3l1,0.6c-0.8,1.6-1.1,3.4-1,5.3c-3.5,20.7-19.9,120.7-19.9,143.8
			c0.1,23,77.2,122.8,77.2,122.8l44.6-55.9L2025.9,681.6z"/>
		<path d="M2189.2,829.8l-7.7,97c-0.6,7.1-4.6,13.6-10.7,17.2l-14.6,8.6c0,0-117.6,8.5-112.8-8.7c9.7-35,7.5-101.3,21.9-149.7
			c7.7-25.8,24.8-47.4,24.8-47.4s10.1-4.4,18.3-2.4c6.8-1,52.3-13.4,69.1,5.4C2195.5,770.1,2189.2,829.8,2189.2,829.8z"/>
		<path class="st40" d="M2263.7,585.7c0.2-0.2,0.3-0.6,0.2-0.9c0,0-1.1-2.8-3.2-7.5c-6.1-11.9-29.3-11.1-33.7-10.8
			c-0.4-1.3-1.5-4.5-3.6-8.6c-0.8-1.6-2-2.6-3.5-3.1c-3.2-1-6.8,0.9-6.9,0.9c-0.4,0.2-0.6,0.7-0.3,1.1c0.2,0.3,0.5,0.5,0.9,0.4
			c5.6,28,18.7,33.7,20,34.3l22.3,117.7l-73.3,48.4c-15,37.6,25.5,52.9,43,44.7c0,0,91.7-59.5,91.7-82.4
			C2317.3,698.4,2277.5,614.1,2263.7,585.7z"/>
		<path d="M2092.2,746l-32.2-37.7l-53.4,49.8l49.4,64.1c0,0,5.2,4.5,14-5.5C2078.8,806.6,2092.2,746,2092.2,746z"/>
		<path d="M2192.1,732.1l37.3-7.6l5.9,79l-49.7,15.4l-20.5-8.8c0,0-8.1-69,7.7-71.9C2188.6,735.2,2192.1,732.1,2192.1,732.1z"/>
	</g>
</g>
<g id="DESIGNED_BY_FREEPIK" class="st2">
	<g id="XMLID_302_" class="st6">
		<g id="XMLID_328_">
			<g id="XMLID_351_">
				<path id="XMLID_376_" class="st41" d="M1180.4,913.1c-0.4,0.4-0.8,0.9-1.1,1.5l-0.5-0.2c-0.1-0.3-0.4-0.5-0.7-0.5
					c-0.3,0-0.6,0.3-0.5,0.7s0.3,0.6,0.7,0.5c0.1,0,0.1,0,0.2,0l0.5,0.2c-0.2,0.5-0.4,1.1-0.5,1.7l0.8,0.1c0.2-1.3,0.8-2.5,1.8-3.5
					L1180.4,913.1z"/>
				<path id="XMLID_375_" class="st41" d="M1185.9,910.8c-0.2,0-0.3,0-0.5,0l-0.1-0.6c0.2-0.2,0.3-0.4,0.3-0.6
					c0-0.4-0.4-0.7-0.8-0.6c-0.4,0-0.7,0.4-0.6,0.8c0,0.2,0.2,0.5,0.4,0.6l0.1,0.6c-0.7,0.1-1.4,0.3-2.1,0.6l0.3,0.7
					c0.9-0.5,1.9-0.7,3-0.7c0.5,0,1,0,1.5,0.2l0.2-0.7C1187,910.8,1186.5,910.8,1185.9,910.8z"/>
				<path id="XMLID_374_" class="st41" d="M1192.5,913.3c0.3,0,0.6-0.3,0.5-0.7s-0.3-0.6-0.7-0.5c-0.3,0-0.5,0.3-0.5,0.6l-0.4,0.4
					c-0.4-0.4-0.9-0.8-1.4-1.1l-0.4,0.6c1.1,0.7,2,1.7,2.6,2.9l0.7-0.3c-0.2-0.5-0.6-1.1-0.9-1.5l0.4-0.4
					C1192.4,913.3,1192.5,913.3,1192.5,913.3z"/>
				<path id="XMLID_373_" class="st41" d="M1185.4,921c-0.4,0-0.8,0-1.2,0c-0.9,0-1.7-0.1-2.5-0.2c-0.4-0.1-0.8-0.1-1.3-0.3
					c1,1.9,3.1,3.1,5.4,3.1c2.9,0,5.3-1.9,5.9-4.5c-0.7,0.5-1.5,0.8-2.5,1.1C1188.2,920.7,1186.8,920.9,1185.4,921z"/>
				<path id="XMLID_352_" class="st41" d="M1185.9,912.3c-3.3,0-6.1,2.7-6.1,5.9c0,0.4,0,0.8,0.1,1.3c0.7,0.5,2.7,0.9,5.3,0.7
					c2.9-0.2,5.3-1,6.7-2.2c0-0.2,0-0.4-0.1-0.6C1191.6,914.5,1189,912.3,1185.9,912.3z M1183.8,918.8c-1,0-1.8-0.8-1.8-1.9
					c0-1,0.8-1.8,1.8-1.8s1.8,0.8,1.8,1.8S1184.8,918.8,1183.8,918.8z M1188.5,917.9c-0.8,0-1.4-0.6-1.4-1.4s0.6-1.4,1.4-1.4
					s1.4,0.6,1.4,1.4S1189.3,917.9,1188.5,917.9z"/>
			</g>
			<path id="XMLID_349_" class="st41" d="M1201.9,914.2c-0.3-0.1-0.8-0.3-1.4-0.2c-0.6,0.1-0.8,0.3-0.8,1v0.9h2.2v1.7h-2.2v5.5h-1.9
				v-5.5h-1.3v-1.7h1.3v-0.9c0-1.7,0.9-2.8,2.6-2.8c0.6,0,1.2,0.1,1.6,0.3L1201.9,914.2z"/>
			<path id="XMLID_347_" class="st41" d="M1206.6,917.5c-0.2,0-0.4,0-0.5,0c-0.9,0-1.5,0.5-1.5,1.6v3.9h-1.9v-7.2h1.9v0.8
				c0.4-0.7,1.1-1,2-1c0.4,0,0.8,0.1,1.1,0.3L1206.6,917.5z"/>
			<path id="XMLID_344_" class="st41" d="M1214.3,919.4c0,0.2,0,0.5,0,0.6h-5.1c0.2,1,0.9,1.5,1.8,1.5c0.6,0,1.3-0.2,1.8-0.7
				l1.1,1.2c-0.8,0.8-1.8,1.1-3.1,1.1c-2.2,0-3.7-1.5-3.7-3.8c0-2.3,1.5-3.8,3.6-3.8C1212.9,915.6,1214.3,917.1,1214.3,919.4z
				 M1209.2,918.7h3.2c-0.2-0.9-0.7-1.4-1.6-1.4C1209.9,917.3,1209.4,917.8,1209.2,918.7z"/>
			<path id="XMLID_341_" class="st41" d="M1222,919.4c0,0.2,0,0.5,0,0.6h-5.1c0.2,1,0.9,1.5,1.8,1.5c0.6,0,1.3-0.2,1.8-0.7l1.1,1.2
				c-0.8,0.8-1.8,1.1-3.1,1.1c-2.2,0-3.7-1.5-3.7-3.8c0-2.3,1.5-3.8,3.6-3.8C1220.5,915.6,1222,917.1,1222,919.4z M1216.8,918.7h3.2
				c-0.2-0.9-0.7-1.4-1.6-1.4C1217.6,917.3,1217,917.8,1216.8,918.7z"/>
			<path id="XMLID_335_" class="st41" d="M1230.3,919.4c0,2.2-1.5,3.8-3.5,3.8c-1,0-1.6-0.4-2.1-0.9v3.7h-1.9v-10.1h1.9v0.8
				c0.5-0.6,1.2-1,2.1-1C1228.8,915.6,1230.3,917.2,1230.3,919.4z M1224.6,919.4c0,1.1,0.8,2,1.8,2c1.1,0,1.8-0.9,1.8-2
				c0-1.1-0.7-2-1.8-2C1225.4,917.4,1224.6,918.2,1224.6,919.4z"/>
			<path id="XMLID_331_" class="st41" d="M1233.4,913.4c0,0.7-0.5,1.2-1.2,1.2c-0.7,0-1.2-0.5-1.2-1.2s0.5-1.2,1.2-1.2
				S1233.4,912.7,1233.4,913.4z M1233.2,923h-1.9v-7.2h1.9V923z"/>
			<path id="XMLID_329_" class="st41" d="M1236.4,918.3l2.7-2.5h2.4l-3.5,3.4l3.5,3.8h-2.4l-2.7-2.9v2.9h-1.9v-10.7h1.9
				L1236.4,918.3L1236.4,918.3z"/>
		</g>
		<g id="XMLID_410_">
			<path id="XMLID_435_" class="st41" d="M1104.8,922.9v-1c-0.5,0.7-1.4,1.2-2.4,1.2c-1.8,0-3.1-1.4-3.1-3.7c0-2.3,1.3-3.7,3.1-3.7
				c1,0,1.8,0.5,2.4,1.2v-3.8h1.1v9.8L1104.8,922.9L1104.8,922.9z M1104.8,921v-3.2c-0.4-0.6-1.2-1.1-2.1-1.1
				c-1.4,0-2.3,1.2-2.3,2.7c0,1.6,0.8,2.7,2.3,2.7C1103.5,922.1,1104.4,921.6,1104.8,921z"/>
			<path id="XMLID_432_" class="st41" d="M1107.3,919.4c0-2,1.5-3.7,3.5-3.7c2.1,0,3.4,1.7,3.4,3.8v0.3h-5.7c0.1,1.3,1,2.5,2.5,2.5
				c0.8,0,1.6-0.3,2.2-0.9l0.5,0.7c-0.7,0.7-1.6,1.1-2.8,1.1C1108.8,923.1,1107.3,921.6,1107.3,919.4z M1110.7,916.6
				c-1.5,0-2.3,1.3-2.3,2.4h4.6C1113.1,917.9,1112.4,916.6,1110.7,916.6z"/>
			<path id="XMLID_430_" class="st41" d="M1115,922l0.6-0.8c0.5,0.5,1.4,1,2.3,1c1.1,0,1.7-0.5,1.7-1.2c0-1.7-4.4-0.7-4.4-3.3
				c0-1.1,1-2,2.6-2c1.2,0,2.1,0.5,2.6,1l-0.5,0.8c-0.4-0.5-1.2-0.9-2.1-0.9c-1,0-1.6,0.5-1.6,1.1c0,1.5,4.4,0.5,4.4,3.3
				c0,1.2-1,2.1-2.8,2.1C1116.7,923.1,1115.7,922.7,1115,922z"/>
			<path id="XMLID_427_" class="st41" d="M1121.8,914.1c0-0.4,0.3-0.8,0.7-0.8c0.4,0,0.8,0.3,0.8,0.8c0,0.4-0.3,0.7-0.8,0.7
				C1122.2,914.8,1121.8,914.5,1121.8,914.1z M1122,922.9v-7.1h1.1v7.1H1122z"/>
			<path id="XMLID_424_" class="st41" d="M1124.9,924.7l0.6-0.8c0.6,0.7,1.3,1,2.3,1c1.2,0,2.3-0.6,2.3-2.1v-1
				c-0.5,0.7-1.4,1.3-2.4,1.3c-1.9,0-3.2-1.4-3.2-3.7c0-2.3,1.3-3.7,3.2-3.7c0.9,0,1.8,0.5,2.4,1.2v-1.1h1.1v6.9
				c0,2.3-1.6,3.1-3.4,3.1C1126.6,925.8,1125.8,925.5,1124.9,924.7z M1130.1,920.9v-3.1c-0.4-0.6-1.2-1.1-2.1-1.1
				c-1.4,0-2.3,1.1-2.3,2.7c0,1.5,0.8,2.7,2.3,2.7C1128.8,922,1129.7,921.5,1130.1,920.9z"/>
			<path id="XMLID_422_" class="st41" d="M1137.8,922.9v-4.6c0-1.2-0.6-1.6-1.6-1.6c-0.9,0-1.7,0.5-2.1,1.1v5.2h-1.1v-7.1h1.1v1
				c0.5-0.6,1.5-1.2,2.5-1.2c1.5,0,2.3,0.8,2.3,2.3v5L1137.8,922.9L1137.8,922.9z"/>
			<path id="XMLID_419_" class="st41" d="M1140.3,919.4c0-2,1.5-3.7,3.5-3.7c2.1,0,3.4,1.7,3.4,3.8v0.3h-5.7c0.1,1.3,1,2.5,2.5,2.5
				c0.8,0,1.6-0.3,2.2-0.9l0.5,0.7c-0.7,0.7-1.7,1.1-2.8,1.1C1141.8,923.1,1140.3,921.6,1140.3,919.4z M1143.7,916.6
				c-1.5,0-2.3,1.3-2.3,2.4h4.6C1146.1,917.9,1145.4,916.6,1143.7,916.6z"/>
			<path id="XMLID_416_" class="st41" d="M1153.7,922.9v-1c-0.5,0.7-1.4,1.2-2.4,1.2c-1.8,0-3.2-1.4-3.2-3.7c0-2.3,1.3-3.7,3.2-3.7
				c0.9,0,1.8,0.5,2.4,1.2v-3.8h1.1v9.8L1153.7,922.9L1153.7,922.9z M1153.7,921v-3.2c-0.4-0.6-1.2-1.1-2.1-1.1
				c-1.4,0-2.3,1.2-2.3,2.7c0,1.6,0.8,2.7,2.3,2.7C1152.5,922.1,1153.3,921.6,1153.7,921z"/>
			<path id="XMLID_413_" class="st41" d="M1160,922.9v-9.8h1.1v3.8c0.6-0.8,1.4-1.2,2.4-1.2c1.9,0,3.2,1.5,3.2,3.7
				c0,2.3-1.3,3.7-3.2,3.7c-1,0-1.9-0.5-2.4-1.2v1L1160,922.9L1160,922.9z M1163.2,922.1c1.4,0,2.3-1.2,2.3-2.7
				c0-1.6-0.8-2.7-2.3-2.7c-0.9,0-1.7,0.5-2.1,1.1v3.2C1161.5,921.6,1162.4,922.1,1163.2,922.1z"/>
			<path id="XMLID_411_" class="st41" d="M1167.9,924.7c0.2,0.1,0.4,0.1,0.6,0.1c0.5,0,0.8-0.2,1-0.8l0.5-1.1l-3-7.2h1.2l2.4,5.8
				l2.3-5.8h1.2l-3.5,8.5c-0.4,1-1.1,1.4-2.1,1.4c-0.2,0-0.6,0-0.8-0.1L1167.9,924.7z"/>
		</g>
	</g>
</g>
</svg>
